<svg width="58" height="60" viewBox="0 0 58 60" fill="none" xmlns="http://www.w3.org/2000/svg">
<path d="M28.325 40.575C31.825 40.575 34.8 39.45 37.25 37.2C39.7 34.95 40.925 32.225 40.925 29.025C40.925 26.175 40.0125 23.7625 38.1875 21.7875C36.3625 19.8125 34.15 18.825 31.55 18.825C29.2 18.825 27.2125 19.575 25.5875 21.075C23.9625 22.575 23.15 24.425 23.15 26.625C23.15 27.575 23.3375 28.5 23.7125 29.4C24.0875 30.3 24.625 31.125 25.325 31.875L29.6 27.6C29.45 27.5 29.3375 27.375 29.2625 27.225C29.1875 27.075 29.15 26.9 29.15 26.7C29.15 26.15 29.375 25.7125 29.825 25.3875C30.275 25.0625 30.85 24.9 31.55 24.9C32.55 24.9 33.375 25.3125 34.025 26.1375C34.675 26.9625 35 27.95 35 29.1C35 30.65 34.3625 31.9625 33.0875 33.0375C31.8125 34.1125 30.25 34.65 28.4 34.65C26.05 34.65 24.0625 33.7 22.4375 31.8C20.8125 29.9 20 27.575 20 24.825C20 23.375 20.275 21.9875 20.825 20.6625C21.375 19.3375 22.15 18.175 23.15 17.175L18.875 12.9C17.275 14.45 16.05 16.25 15.2 18.3C14.35 20.35 13.925 22.5 13.925 24.75C13.925 29.15 15.325 32.8875 18.125 35.9625C20.925 39.0375 24.325 40.575 28.325 40.575ZM9.5 60V47.1C6.65 44.5 4.4375 41.4625 2.8625 37.9875C1.2875 34.5125 0.5 30.85 0.5 27C0.5 19.5 3.125 13.125 8.375 7.875C13.625 2.625 20 0 27.5 0C33.75 0 39.2875 1.8375 44.1125 5.5125C48.9375 9.1875 52.075 13.975 53.525 19.875L57.425 35.25C57.675 36.2 57.5 37.0625 56.9 37.8375C56.3 38.6125 55.5 39 54.5 39H48.5V48C48.5 49.65 47.9125 51.0625 46.7375 52.2375C45.5625 53.4125 44.15 54 42.5 54H36.5V60H30.5V48H42.5V33H50.6L47.75 21.375C46.6 16.825 44.15 13.125 40.4 10.275C36.65 7.425 32.35 6 27.5 6C21.7 6 16.75 8.025 12.65 12.075C8.55 16.125 6.5 21.05 6.5 26.85C6.5 29.85 7.1125 32.7 8.3375 35.4C9.5625 38.1 11.3 40.5 13.55 42.6L15.5 44.4V60H9.5Z" fill="#A0CAE0"/>
</svg>
