<?xml version="1.0" encoding="UTF-8"?>
<svg id="Camada_1" data-name="Camada 1" xmlns="http://www.w3.org/2000/svg" viewBox="0 0 1000 1000">
  <defs>
    <style>
      .cls-1 {
        fill: #5bcefa;
      }

      .cls-1, .cls-2 {
        stroke-width: 0px;
      }
    </style>
  </defs>
  <path class="cls-2" d="M383.96,745.38c-1.51,4.78-3.36,8.14-3.56,11.59-2.97,52.29-5.73,104.6-8.49,156.9-.15,2.88.24,5.79.06,8.67-1.14,18.42-13.02,36.59-26.02,38.6-17.35,2.68-43.66-8.7-50.07-26.3-14.21-39.05-24.24-78-21.71-120.27,2.27-38.01.06-76.27,1.01-114.39,1.08-43.07,4.44-86.1,5.02-129.17.49-36.68-1.68-73.38-2.45-110.08-.41-19.34-1.44-38.76-.2-58.02,1.6-24.83-12.51-42.4-29.7-53.89-27.88-18.64-58.39-33.92-89.12-47.61-47.32-21.08-90.3-47.95-126.35-85.16-14.88-15.36-28.32-31.73-28.46-55.58-.15-24.38,13.29-32.98,32.51-34.2,53.51-3.4,101.11,11.91,142.54,45.96,16.13,13.26,32.38,26.45,47.74,40.58,25.06,23.06,52.81,42.73,83.12,57.26,17.56,8.42,38.85,10.69,58.73,12.27,35.94,2.86,72.23,4.32,107.73-4.26,32.53-7.86,65.34-15.27,96.94-26.05,54.39-18.55,108-39.4,161.8-59.66,16.76-6.31,32.79-14.6,49.65-20.62,28.64-10.24,58.2-15.2,88.85-12.9,27.87,2.09,46.38,31.14,37.24,57.67-13.69,39.76-44.32,59.22-82.39,68.39-43.42,10.46-87.34,18.85-131.09,27.93-19.76,4.1-40.09,6.15-59.3,11.98-16.28,4.94-32.36,12.43-46.42,21.91-6.49,4.38-9.79,15.87-11.4,24.71-7.63,41.95-10.22,84.39-9.75,127.02.32,29.6,3.82,59.58.26,88.7-5.22,42.58-3.45,84.9-2.15,127.29,1.23,40.16,5.71,80.21,7.09,120.36,1.08,31.46.44,63.05-1.1,94.51-.8,16.3-20.46,36.14-36.3,39.24-5.38,1.05-12.23,1.24-16.77-1.22-15.08-8.16-32.1-16.33-36.37-34.45-7.07-29.92-13.13-60.27-16.54-90.78-2.13-18.99,1.65-38.61,2.24-57.96.17-5.66-1.08-11.47-2.35-17.06-5.51-24.19-10.87-27.52-35.27-24.97-15.76,1.65-31.66,2.01-49.18,3.05ZM330.74,917.81c2-.13,4.01-.27,6.01-.4,0-19.23-.9-38.5.19-57.67,2.06-35.95,4.69-71.9,8.38-107.72,1.07-10.4,5.63-20.8,10.28-30.38,3.99-8.22,11.97-11.96,21.59-11.99,29.62-.11,59.25-.8,88.87-.74,14.71.03,20.15,4.3,22.37,18.09,4.35,27.08,8.69,54.21,11.53,81.47,3.47,33.4,5.15,67,14.24,99.58,1.36,4.86,1.2,10.77,4.05,14.4,3.04,3.87,8.71,7.39,13.4,7.63,2.88.15,6.82-5.78,8.9-9.7,1.56-2.95.77-7.08,1.3-10.65,6.63-44.81-.85-89.3-3.25-133.89-1.85-34.31-6.5-68.55-6.73-102.84-.29-42.43,3.62-84.88,4.07-127.34.64-60.35.03-120.54,8.42-180.69,4.09-29.28,15.61-49.47,43.24-58.28,28.71-9.16,57.89-17.11,87.27-23.8,47.73-10.87,96.59-16.03,143.93-29.45,25-7.09,44.55-17.82,55.06-42.72,5.82-13.8,3.68-18.56-11.12-18.69-26.5-.24-51.2,7.67-75.82,16.23-40.79,14.17-81.64,28.16-122.47,42.22-24.49,8.43-49.58,15.47-73.34,25.6-39.44,16.81-79.84,29.41-122.5,33.68-22.07,2.21-44.43,1.57-66.52,3.66-44.29,4.2-84.47-7.89-121.34-30.87-30.54-19.03-59.43-40.68-89.46-60.57-21.61-14.32-43.56-28.19-65.93-41.27-24.76-14.47-52.25-15.1-81.76-15.09,2.37,4.71,3.18,7.61,4.96,9.65,22.29,25.63,46.87,48.9,77.04,64.87,41.37,21.89,82.71,44.1,125.44,63.09,41.8,18.57,72.76,77.06,66.02,118.67-4.13,25.48-4.93,51.68-5.22,77.58-.48,43.08,6.36,86.19-.66,129.27-.57,3.53-.27,7.21-.25,10.82.38,67.9.65,135.81,1.23,203.71.22,26.34,8.19,50.8,18.57,74.55Z"/>
  <path class="cls-2" d="M893.58,639.36c-5.41,19.62-1.05,35.59,2.36,51.76,6.07,28.77,11.57,57.67,17.32,86.51,2.8,14.06,5.39,28.16,8.45,42.15,5.06,23.18-2.42,35.59-26.17,39.91-13.4,2.44-27.21,2.74-40.84,3.83-8.42.67-13.45-3.5-15.93-11.48-19.35-62.47-38.78-124.92-57.88-186.38-23.35-6.25-47.43-12.79-71.57-19.12-20.18-5.29-36.42-17.18-50.97-31.29-25.41-24.64-49.24-50.26-58.43-86.3-6.36-24.94-1.44-48.62,3.9-72.58,7.77-34.84,30.93-59.43,57.94-79.37,15.83-11.69,36.24-17.34,54.84-25.11,43.46-18.18,89.26-19.19,133.68-9.07,55.67,12.68,102.67,39.47,127.3,96.5,12.94,29.97,22.74,58.88,16.73,91.8-4.77,26.15-15,48.58-33.36,68.64-18.76,20.51-40.51,33.86-67.35,39.62ZM861.82,830.78c5.64.32,8.47.84,11.22.58,18.9-1.83,20.22-4.46,16.14-23.35-5.16-23.92-9.21-48.09-14.12-72.07-2.57-12.56-6.66-24.83-8.8-37.45-2.26-13.28-2.46-26.9-4.58-40.21-2.37-14.85-5.89-29.52-9.4-46.66,14.7-4.84,28.12-9.36,41.61-13.66,34.57-11.02,68-53.33,62.64-93.34-3.45-25.72-13.55-48.5-27.43-69.84-12.15-18.68-29.51-31.13-49.6-40.62-40.57-19.15-83.46-23.13-126.84-17.27-20.01,2.7-41.5,5.82-58.42,19.47-28.38,22.89-52.71,47.49-57.15,87.37-2.82,25.36.88,47.2,15.86,66.87,9.52,12.5,21.16,23.36,31.52,35.23,12.25,14.04,27.35,23.68,45.37,27.53,18.23,3.89,36.74,7.28,55.29,8.54,11.06.75,17.4,3.11,19.88,14.61,4.56,21.12,9.17,42.31,15.41,62.98,13.27,44.02,27.59,87.73,41.39,131.28Z"/>
  <path class="cls-2" d="M405.56,246.81c-17.77-2.76-35.8-4.44-53.27-8.5-31.15-7.24-63.39-38.15-60.56-77.64.91-12.74,1.07-25.53,1.81-38.28,1.41-24.21,15.99-40.67,33.95-54.22,23.56-17.78,48.11-31.79,78.99-36.62,72.33-11.31,133.43,71.12,114.07,130.54-13.41,41.18-54.2,79.89-97.35,82.23-5.78.31-11.55.59-17.33.88-.1.54-.2,1.07-.31,1.61ZM332.1,145.57c-3.09,28.1,4.45,44.36,29.78,53.69,7.69,2.83,16.4,3.03,24.69,4.06,24.9,3.09,47.89-.02,69.69-14.79,27.46-18.61,35.95-60.15,15.62-87.15-21.41-28.44-65.61-40.55-96.19-22.21-25.04,15.01-51.72,32.35-43.58,66.41Z"/>
  <path class="cls-1" d="M330.74,917.81c-10.38-23.75-18.34-48.21-18.57-74.55-.58-67.9-.85-135.8-1.23-203.71-.02-3.61-.32-7.29.25-10.82,7.02-43.08.18-86.19.66-129.27.29-25.9,1.09-52.09,5.22-77.58,6.74-41.61-24.22-100.1-66.02-118.67-42.73-18.98-84.07-41.19-125.44-63.09-30.17-15.97-54.75-39.24-77.04-64.87-1.78-2.05-2.58-4.94-4.96-9.65,29.51-.01,57,.62,81.76,15.09,22.38,13.08,44.32,26.95,65.93,41.27,30.02,19.89,58.92,41.53,89.46,60.57,36.87,22.98,77.04,35.07,121.34,30.87,22.09-2.1,44.45-1.45,66.52-3.66,42.65-4.27,83.06-16.86,122.5-33.68,23.77-10.13,48.85-17.17,73.34-25.6,40.83-14.06,81.68-28.05,122.47-42.22,24.62-8.55,49.32-16.47,75.82-16.23,14.8.13,16.94,4.89,11.12,18.69-10.51,24.9-30.06,35.64-55.06,42.72-47.35,13.42-96.2,18.58-143.93,29.45-29.38,6.69-58.56,14.64-87.27,23.8-27.63,8.82-39.15,29-43.24,58.28-8.4,60.15-7.79,120.34-8.42,180.69-.45,42.46-4.35,84.9-4.07,127.34.23,34.29,4.88,68.53,6.73,102.84,2.4,44.58,9.88,89.07,3.25,133.89-.53,3.57.26,7.7-1.3,10.65-2.08,3.93-6.02,9.85-8.9,9.7-4.69-.24-10.36-3.76-13.4-7.63-2.84-3.62-2.69-9.54-4.05-14.4-9.1-32.58-10.77-66.18-14.24-99.58-2.83-27.26-7.17-54.39-11.53-81.47-2.22-13.79-7.66-18.06-22.37-18.09-29.62-.06-59.25.62-88.87.74-9.63.04-17.61,3.78-21.59,11.99-4.65,9.58-9.21,19.97-10.28,30.38-3.69,35.82-6.32,71.77-8.38,107.72-1.1,19.16-.19,38.44-.19,57.67-2,.13-4.01.27-6.01.4Z"/>
  <path class="cls-1" d="M861.82,830.78c-13.8-43.55-28.12-87.26-41.39-131.28-6.23-20.67-10.84-41.86-15.41-62.98-2.48-11.5-8.82-13.86-19.88-14.61-18.55-1.26-37.06-4.65-55.29-8.54-18.03-3.85-33.12-13.48-45.37-27.53-10.36-11.88-22.01-22.74-31.52-35.23-14.98-19.68-18.68-41.51-15.86-66.87,4.44-39.88,28.77-64.47,57.15-87.37,16.92-13.65,38.41-16.77,58.42-19.47,43.38-5.85,86.28-1.88,126.84,17.27,20.09,9.48,37.45,21.94,49.6,40.62,13.88,21.33,23.98,44.12,27.43,69.84,5.36,40.01-28.07,82.32-62.64,93.34-13.49,4.3-26.91,8.83-41.61,13.66,3.51,17.14,7.03,31.81,9.4,46.66,2.12,13.31,2.32,26.93,4.58,40.21,2.15,12.62,6.23,24.89,8.8,37.45,4.91,23.98,8.96,48.14,14.12,72.07,4.08,18.9,2.75,21.52-16.14,23.35-2.75.27-5.57-.26-11.22-.58ZM807.58,583.45c28.11-.36,46.71-6.88,60.19-25.9,31.88-44.99,15.6-82.38-21.86-112.94-26.22-21.4-60-19.51-92.82-18.9-17.8.33-27.17,12.04-39.02,20.07-29.88,20.25-35.3,57.67-12.81,84.92,28.98,35.12,69.02,47.8,106.32,52.76Z"/>
  <path class="cls-1" d="M332.1,145.57c-8.14-34.05,18.54-51.4,43.58-66.41,30.59-18.33,74.79-6.23,96.19,22.21,20.33,27,11.84,68.54-15.62,87.15-21.8,14.77-44.79,17.88-69.69,14.79-8.29-1.03-17-1.23-24.69-4.06-25.33-9.33-32.88-25.59-29.78-53.69Z"/>
  <path class="cls-2" d="M807.58,583.45c-37.3-4.96-77.34-17.64-106.32-52.76-22.49-27.25-17.07-64.67,12.81-84.92,11.86-8.04,21.23-19.74,39.02-20.07,32.82-.6,66.6-2.5,92.82,18.9,37.46,30.57,53.75,67.96,21.86,112.94-13.48,19.02-32.09,25.54-60.19,25.9ZM777.64,456.67c-18.18-1.87-33.68,5.75-46.36,20.22-11.72,13.37-12.31,22.65.09,35.83,21.79,23.15,50.46,32.17,80.76,36.72,24.37,3.66,49.65-33.22,31.32-54.3-7.82-8.99-16.16-18.44-26.23-24.32-11.63-6.8-21.87-19.59-39.59-14.15Z"/>
</svg>