<?xml version="1.0" encoding="UTF-8"?>
<svg id="Camada_1" data-name="Camada 1" xmlns="http://www.w3.org/2000/svg" viewBox="0 0 1000 1000">
  <defs>
    <style>
      .cls-1 {
        fill: #5bcefa;
      }

      .cls-1, .cls-2 {
        stroke-width: 0px;
      }
    </style>
  </defs>
  <path class="cls-2" d="M886.41,537.57c-25.92,3.18-53.13,6.51-83.23,10.2-.25,12.24-.43,24.94-.77,37.63-1.14,42.08-1.28,84.22-3.9,126.21-1.78,28.48-16.51,39.04-45.71,39.34-12.95.13-25.87,2.73-39.44,4.27-7.24,15-1.43,30.31-.61,45.13,3.03,55.2,7.32,110.34,10.9,165.52.76,11.76-6.66,20.94-17.28,22.28-19.63,2.47-39.25,5-58.93,6.96-25.39,2.52-35.69-7.08-35.28-32.18,1.01-61.84.19-123.79,3.8-185.48,2.08-35.55.42-70.44-2.69-105.6-1.8-20.4,2.43-26.9,22.37-30.28,12.56-2.13,25.74-.41,38.62-.9,5.67-.22,11.29-1.65,19.44-2.93-1.6-54.63-3.01-107.48-4.82-160.32-.39-11.44-3.84-23.23,8.3-31.53,14.96.7,30.17,1.9,45.38,1.88,6.71-.01,13.41-2.53,20.28-3.95,0-26.1.16-51.7-.09-77.3-.09-9.21-2.56-18.56-1.58-27.59,4-36.78-9.42-69.98-22.76-102.36-6.67-16.19-21.04-29.61-33.44-42.88-7.17-7.68-17.37-12.52-26.17-18.7-21.93-15.41-46.14-23.55-73.04-24.67-29.9-1.24-59.77-4.94-89.64-4.77-22.82.13-46.53,1.5-68.24,7.82-41.26,12.03-80.37,29.43-108.2,65-12.19,15.58-25.91,29.96-38.41,45.32-17.57,21.59-26.76,47.33-36.33,73.11-12.05,32.47-10.97,65.34-10.66,99.24.37,40.11,7.58,77.44,24.14,113.51,14.53,31.64,32.68,60.93,57.95,85.04,16.25,15.51,37.97,19.19,59.23,22.83,3.68.63,7.56.09,10.19.09,14.52,12.59,14.8,28.18,12.63,43.54-5.43,38.37-.02,76.26,3.11,114.32,3.96,48.09,7.55,96.22,10.64,144.37.67,10.39-1.5,20.97-2.5,33.13-43.29-2.57-84.35-5-124.63-7.39-8.01-12.34-9.86-22.88-7.7-36.32,2.73-16.93.19-34.68.24-52.07.11-47.19.55-94.37.44-141.56-.02-9.05-1.94-18.1-2.94-26.76-6.12-2.82-10.8-5.49-15.81-7.19-36.67-12.41-61.29-38.67-83.37-69.13-25.97-35.83-47.42-73.53-57.95-116.75-12.86-52.78-29.1-105.49-23.99-160.5,3.1-33.37,10.83-66.51,18.83-99.18,14.36-58.65,53.18-102.39,92.74-145.28,34.65-37.57,78.07-62.04,122.99-85.42,49.18-25.6,101.79-31.42,155.22-35.66,28.32-2.25,56.74-3.27,85.1-4.97,25.23-1.52,48.77,6.34,71.45,15.25,49.21,19.33,93.24,47.86,127.93,87.79,21.89,25.2,41.7,52.65,54.09,84.72,9.36,24.24,24.58,46.23,27.25,73,1.52,15.26,3.29,30.49,4.82,45.74,4.05,40.43,9.32,80.78,11.62,121.31,1.94,34.09.4,68.38.4,105.07ZM390.59,689.32c-5.17-2.22-9.22-4.51-13.57-5.73-46.17-12.94-79.57-44.11-105.74-81.35-30.58-43.52-50.48-91.9-52.08-147.18-1.4-48.54-2.07-96.7,15.54-142.49,10.4-27.04,23.74-53.25,38.53-78.19,9.18-15.48,24.58-27.13,35.35-41.84,19.19-26.22,45.49-43.32,74.13-55.44,24.49-10.37,51.16-16.16,77.32-21.93,74.38-16.42,148.05-15.14,217.54,19.1,26.36,12.99,50.06,31.31,69.49,55.17,17.23,21.16,22.82,46.24,31.83,70.33,4.27,11.43,9.01,23.38,9.69,35.32,2.68,46.73,4.05,93.55,5.47,140.35.79,25.82-8.73,36.31-34.1,39.99-14.09,2.04-28.09,4.72-41.61,7.02,0,25.15-.3,48.04.08,70.92.48,29.1,3.08,58.34-6.05,86.71-8.51,26.45-9.36,26.54-37.17,27.31-12.58.35-26.01-3.53-37.53,4.45,0,29.44-.94,57.84.21,86.16,2.01,49.66,5.32,99.26,7.98,148.89.21,3.82-.56,7.68-.51,11.52.2,14.01.55,28.02.86,42.93,16.71-2.69,30.14-4.86,44.08-7.11-8.47-72.89-14.32-144.98-9.45-218.84,20.86-3.98,40.35-7.85,59.91-11.39,23.82-4.3,26.58-7.18,27.84-31.18.32-6.14.32-12.31.31-18.46-.06-39.23-.21-78.46-.25-117.69-.02-25.18,5.72-31.89,31.39-35.95,19.55-3.09,39.17-5.66,59.48-8.56,0-16.86-.02-32.03,0-47.19.03-19.74,1.53-39.6-.18-59.19-2.46-28.25-9.36-56.21-10.57-84.45-2.2-51.45-29.27-93.06-50.4-137.04-16.17-33.66-42.05-59.39-70.18-83.67-36.12-31.16-76.97-49.19-124.2-53.61-6.75-.63-13.45-3.05-20.15-2.94-30.6.51-61.34.15-91.74,3.04-20.36,1.93-40.39,8.27-60.31,13.58-28.14,7.5-58.15,11.82-83.49,24.97-28,14.53-52.95,36-76.75,57.22-21.08,18.8-39.77,40.59-57.61,62.6-14.43,17.8-30.67,36.29-37.9,57.3-15.7,45.6-27.63,92.82-25.51,141.95.86,19.82,5.2,39.64,4.51,59.34-.61,17.45,3.18,32.99,8.13,49.33,9.42,31.07,20.03,61.12,38.51,88.35,24.52,36.13,46.86,73.89,91.81,88.77,6.5,2.15,12.31,6.36,18.76,8.72,13.56,4.96,18.89,14.84,18.19,28.56-.47,9.19-2.22,18.37-2.01,27.52,1.04,45.29,2.74,90.57,3.81,135.86.5,21.25.09,42.52.09,66.04h61.08c0-29.74.37-58.04-.1-86.34-.47-27.59-2.22-55.17-2.63-82.76-.48-32.16-.11-64.33-.11-98.77Z"/>
  <path class="cls-2" d="M619.14,252.08c-13.17,26.11-25.15,49.84-36.95,73.23-15.49-5.99-28.18-10.68-40.71-15.78-28.21-11.5-53.16.5-72.08,17.39-32.02,28.58-50.91,64.25-41.89,110.83,7.43,38.38,53.88,79.16,84.19,77.09,20.11-1.38,33.34-11.11,36.35-30.95.8-5.3.64-10.75,1.05-16.12.8-10.47-3.26-17.66-13.44-21.39-9.37-3.43-18.45-7.67-27.85-11.02-12.7-4.53-20.95-13.36-20.92-26.54.03-15.82,1.43-31.9,4.67-47.35,1.92-9.15,10.18-15.32,20.5-16.17,44.91-3.71,106.47,15.47,120.52,79.22,5.59,25.34,4.53,49.38.74,74.91-4.21,28.32-14.12,52.85-29.21,76.46-19.19,30.01-47.52,42.15-81.44,44.23-29.9,1.84-57.9-4.76-83.92-19.84-39.11-22.68-74.21-49.62-91.53-93.19-18.97-47.73-22.98-97.04-5.74-145.95,12.83-36.41,32.86-68.99,61.9-95.58,22.16-20.29,47.91-32.25,77.2-36.99,12.9-2.09,26.04-2.7,38.94-4.81,36.67-6.01,67.37,8.01,99.61,28.35ZM576.62,287.31c8.11-10.6,5.85-17.73-2.49-21.32-11.16-4.8-23.26-7.39-34.71-11.59-33.49-12.28-65.54-1.89-91.25,15.75-53.05,36.39-82.92,89.17-87.99,154.35-1.23,15.84-4.73,32.88-.6,47.51,19.31,68.39,66.76,108.47,135.05,123.35,27.09,5.9,54.66.86,75.63-18.52,27.64-25.54,37.5-61.01,44.62-96.4,2.36-11.73-1.14-25.45-4.76-37.42-10.68-35.34-36.12-55.92-70.89-65.56-5.37-1.49-11.5-.21-18.19-.21-1.45,10.53-2.67,19.31-3.96,28.64,11.55,4.03,21.06,6.96,30.26,10.64,25.91,10.36,34.64,23.55,33.79,51.13-.26,8.43-.84,16.97-2.46,25.23-5.66,28.95-33.2,55.8-58.72,52.41-37.88-5.04-74.24-13.57-99.01-49.22-42.54-61.21-34.08-126.97,11-177.17,31.43-35,74.32-42.91,119.97-36.28,8.24,1.2,16.39,3.09,24.69,4.69Z"/>
  <path class="cls-1" d="M390.59,689.32c0,34.44-.37,66.61.11,98.77.41,27.59,2.17,55.17,2.63,82.76.48,28.29.1,56.6.1,86.34h-61.08c0-23.52.41-44.79-.09-66.04-1.06-45.29-2.76-90.57-3.81-135.86-.21-9.15,1.54-18.33,2.01-27.52.71-13.72-4.62-23.6-18.19-28.56-6.45-2.36-12.26-6.57-18.76-8.72-44.95-14.88-67.29-52.65-91.81-88.77-18.48-27.23-29.09-57.28-38.51-88.35-4.95-16.34-8.74-31.88-8.13-49.33.69-19.7-3.65-39.51-4.51-59.34-2.13-49.13,9.81-96.34,25.51-141.95,7.23-21.01,23.48-39.51,37.9-57.3,17.84-22.01,36.54-43.8,57.61-62.6,23.8-21.23,48.75-42.69,76.75-57.22,25.34-13.15,55.35-17.47,83.49-24.97,19.92-5.31,39.95-11.65,60.31-13.58,30.41-2.89,61.14-2.53,91.74-3.04,6.69-.11,13.39,2.31,20.15,2.94,47.23,4.42,88.08,22.44,124.2,53.61,28.14,24.28,54.01,50.01,70.18,83.67,21.13,43.98,48.19,85.59,50.4,137.04,1.21,28.24,8.11,56.2,10.57,84.45,1.71,19.59.21,39.45.18,59.19-.03,15.17,0,30.33,0,47.19-20.31,2.9-39.93,5.48-59.48,8.56-25.67,4.06-31.41,10.77-31.39,35.95.03,39.23.18,78.46.25,117.69,0,6.15.01,12.32-.31,18.46-1.26,24-4.02,26.88-27.84,31.18-19.56,3.53-39.05,7.41-59.91,11.39-4.87,73.87.98,145.96,9.45,218.84-13.93,2.25-27.37,4.41-44.08,7.11-.31-14.9-.66-28.91-.86-42.93-.05-3.84.71-7.7.51-11.52-2.67-49.63-5.98-99.24-7.98-148.89-1.14-28.32-.21-56.72-.21-86.16,11.52-7.98,24.95-4.1,37.53-4.45,27.82-.77,28.66-.86,37.17-27.31,9.13-28.37,6.53-57.61,6.05-86.71-.38-22.88-.08-45.77-.08-70.92,13.52-2.3,27.52-4.98,41.61-7.02,25.37-3.68,34.89-14.17,34.1-39.99-1.42-46.8-2.79-93.61-5.47-140.35-.69-11.94-5.42-23.89-9.69-35.32-9.01-24.08-14.6-49.17-31.83-70.33-19.43-23.86-43.12-42.18-69.49-55.17-69.49-34.24-143.15-35.52-217.54-19.1-26.16,5.77-52.83,11.56-77.32,21.93-28.64,12.13-54.94,29.22-74.13,55.44-10.77,14.71-26.17,26.36-35.35,41.84-14.79,24.94-28.14,51.15-38.53,78.19-17.61,45.79-16.94,93.95-15.54,142.49,1.6,55.28,21.49,103.66,52.08,147.18,26.17,37.23,59.57,68.41,105.74,81.35,4.35,1.22,8.39,3.51,13.57,5.73Z"/>
  <path class="cls-1" d="M576.62,287.31c-8.31-1.6-16.45-3.49-24.69-4.69-45.65-6.63-88.54,1.28-119.97,36.28-45.08,50.2-53.54,115.97-11,177.17,24.78,35.65,61.13,44.18,99.01,49.22,25.52,3.39,53.06-23.45,58.72-52.41,1.62-8.26,2.2-16.79,2.46-25.23.85-27.58-7.88-40.77-33.79-51.13-9.21-3.68-18.71-6.61-30.26-10.64,1.29-9.33,2.5-18.11,3.96-28.64,6.69,0,12.82-1.28,18.19.21,34.77,9.63,60.21,30.21,70.89,65.56,3.62,11.97,7.12,25.69,4.76,37.42-7.13,35.39-16.99,70.87-44.62,96.4-20.97,19.37-48.54,24.42-75.63,18.52-68.29-14.87-115.74-54.95-135.05-123.35-4.13-14.63-.63-31.68.6-47.51,5.07-65.18,34.94-117.96,87.99-154.35,25.71-17.64,57.76-28.03,91.25-15.75,11.45,4.2,23.54,6.78,34.71,11.59,8.34,3.59,10.6,10.72,2.49,21.32Z"/>
</svg>