<svg width="61" height="48" viewBox="0 0 61 48" fill="none" xmlns="http://www.w3.org/2000/svg">
<path d="M48.5 27V21H60.5V27H48.5ZM52.1 48L42.5 40.8L46.1 36L55.7 43.2L52.1 48ZM46.1 12L42.5 7.2L52.1 0L55.7 4.8L46.1 12ZM9.5 45V33H6.5C4.85 33 3.4375 32.4125 2.2625 31.2375C1.0875 30.0625 0.5 28.65 0.5 27V21C0.5 19.35 1.0875 17.9375 2.2625 16.7625C3.4375 15.5875 4.85 15 6.5 15H18.5L33.5 6V42L18.5 33H15.5V45H9.5ZM27.5 31.35V16.65L20.15 21H6.5V27H20.15L27.5 31.35ZM36.5 34.05V13.95C37.85 15.15 38.9375 16.6125 39.7625 18.3375C40.5875 20.0625 41 21.95 41 24C41 26.05 40.5875 27.9375 39.7625 29.6625C38.9375 31.3875 37.85 32.85 36.5 34.05Z" fill="#E8AAD1"/>
</svg>
