<?xml version="1.0" encoding="UTF-8"?>
<svg id="Camada_1" data-name="Camada 1" xmlns="http://www.w3.org/2000/svg" viewBox="0 0 1000 1000">
  <defs>
    <style>
      .cls-1, .cls-2 {
        stroke-width: 0px;
      }

      .cls-2 {
        fill: #f5a9b8;
      }
    </style>
  </defs>
  <path class="cls-1" d="M13.71,12.24c14.57,0,27.25-3.15,37.43.56,38.93,14.17,79.81,15.51,120.04,20.84,37.2,4.93,74.72,7.46,112,11.83,9.06,1.06,17.76,5.18,28.47,8.46-1.04,30.12.2,59.15-15.24,86.56,7.27,7.55,17.92,15.1,23.63,25.38,7.76,13.96-10.48,20.7-13.67,34.55,7.91,6.76,16.63,14.2,27.19,23.22,11.65-4.78,23.99-9.07,35.65-14.78,31.25-15.31,63.16-23.94,98.86-24.62,45.85-.86,88.16,9.65,129.66,26.37,13.64,5.5,26.25,13.58,40.37,21.02,45.97-34.54,72.96-86.23,116.72-124.65-29.2-5.69-58.34-5.57-83.11-17.56-1.37-2.38-2.05-3.02-2.11-3.72-4.29-50.04-1.83-55.24,47.64-62.99,56.36-8.84,112.92-17.69,170.41-15.82,14.02.46,28.31-.11,42.12-2.38,11.39-1.88,15.12,1.43,17.21,12.34,10.88,56.67,22.82,113.13,33.7,169.79,3.65,19,5.26,38.39,8.24,60.84-27.55,7.57-54.31,14.92-80.77,22.19-10.54-12.88-19.66-22.59-20.5-38.03-.71-13.02-4.44-25.87-7.17-40.65-51.14,40.25-100.38,79-148.76,117.08,14.1,33.18,27.13,63.17,39.61,93.4,13.88,33.61,20.91,68.66,17.61,105.02-2.8,30.84-2.08,61.64-11.2,92.44-9.55,32.23-28.38,55.85-53.37,74.33-30.05,22.23-62.99,40.76-98.74,52.86-21.22,7.18-43.09,12.43-66.69,19.13,1.92,20.24,3.81,40.14,5.68,59.95,9.77,4.27,18,9.23,26.92,11.48,16.91,4.27,21.67,16.45,22.21,31.3.45,12.5-1.07,25.05-.93,37.57.13,11.53-5.56,17.16-16.23,19.36-12.94,2.66-25.8,5.66-41.33,9.09,1.79,13.97,3.48,27.54,5.27,41.09,4.28,32.35,1.88,35.74-29.56,38.02-18.7,1.36-37.48,1.51-56.19,2.73-21.38,1.39-29.64-5.65-30.26-27.84-.48-17-.1-34.03-.1-53.97-8.25,1.26-17.21,2.04-25.87,4.09-13.52,3.19-25.98-.86-27.79-12.91-4.28-28.45-7.79-57.27,1.17-85.68.67-2.13,2.43-3.91,4.17-6.59,13.4-1.95,27.18-3.96,42.5-6.19v-62.96c-48.21-3.88-90.65-23.08-132.47-44.15-41.05-20.68-74.14-49.64-92.96-92.22-7.13-16.14-12.03-33.63-15.4-51-5.92-30.51-13.19-60.78-12.94-92.45.14-17.51,3.43-33.62,7.65-50.24,9.64-37.94,18.76-75.91,44.01-106.77-24.88-27.31-28.95-26.31-60.09,13.89-22.39-6.8-33.56-28.57-54.98-40.67,10.67-12.17,20.22-23.06,31.99-36.48-16.67-12.51-32.96-24.73-53.51-40.16,1.74,23.32,3.02,41.58,4.51,59.82.51,6.24,2.04,12.43,2.18,18.66.46,20.65-3.33,24.65-23.72,30.77-15.67,4.7-30.92,10.81-46.08,16.19-13.16-4.42-17.93-13.5-18.17-26.95-.54-30.35-2.4-60.67-3.29-91.02-1.61-54.68-3.09-109.36-4.19-164.05-.22-10.76,1.55-21.57,2.59-34.71ZM637.85,275.77c-3.81-1.88-6.17-2.56-7.93-3.98-68.58-55.54-144.09-62.34-224.63-31.47-23.94,9.18-47.31,19.85-72.26,30.4-23.69-24.39-53.08-40.94-76.18-66.96,11.59-10.7,21.25-19.61,31.69-29.25-5.54-5.1-9.86-9.08-14.79-13.62-12.05,11.03-22.82,20.88-34.04,31.15-30.47-20.72-56.84-43.43-80.52-69.46-8.02-8.81-6.99-17.89-4.46-29.71,8.54-1.27,17.01-4.05,25.25-3.49,31.02,2.11,61.97,5.3,94.49,8.23.28-5.02.61-10.82,1.03-18.3-39.46-5.19-77.4-10.06-115.3-15.2-37.87-5.14-75.7-10.55-115.3-16.09-7.3,79.68-1.63,159.27,4.44,241.25,9.95-3.37,16.99-5.75,25.7-8.7-7.16-43.97-9.81-86.75-.39-134.35,23.82,15.92,43.98,28.7,63.38,42.54,19,13.55,37.24,28.18,55,41.72-14.12,17.1-26.86,32.53-40.56,49.13,4.98,4.02,9.5,7.67,13.06,10.55,16.97-15.81,32.69-30.44,50.02-46.58,24.57,22.76,46.77,43.33,69.42,64.31-9.39,13.88-19.13,24.54-24.65,37.07-24.31,55.1-47.67,110.64-25.57,172.83,2.04,5.75,1.44,12.4,2.29,18.61,4.08,29.96,11.93,59.64,32.76,81.56,40.69,42.81,91.74,68.52,149.86,79.71,10.76,2.07,21.69,3.29,32.43,5.44,16.65,3.34,19.31,5.48,20.18,23.21,1.03,21.02.3,42.13.19,63.2-.06,10.95.35,21.99-.85,32.84-1.52,13.77-5.78,16.49-20.05,16.14-9.05-.23-18.12-.04-30.4-.04,1.25,17.87,2.25,32.08,3.21,45.85,37.75,2.55,39.82,4.36,45.05,40.07,1.89,12.89,2.91,25.91,4.52,40.69,17.68-1.84,33.68-3.5,51.11-5.31,2.76-24.83,5.38-48.42,7.98-71.76,16.1-3.51,30.37-6.62,43.97-9.59v-27.59c-5.69-.77-10.29-1.2-14.81-2.03-23.45-4.31-28.39-9.75-30.47-33.33-.14-1.56.05-3.14-.02-4.7-1.29-25.79-2.71-51.57-3.86-77.37-.37-8.38-.06-16.79-.06-26.16,8.88-1.89,16.41-3.68,24-5.09,57.26-10.6,108.75-34.42,154.34-70.12,11.85-9.28,23.34-22.3,28.55-36.04,8.7-22.96,17.28-47.09,10.92-73.03-1.43-5.83.44-12.42.49-18.66.07-10.08.72-20.24-.33-30.22-4.08-38.75-18.67-74.17-36.21-108.44-7.41-14.47-16.09-28.3-24.34-42.67,19.23-29.45,42.26-54.81,69.55-73.74,40.65-28.2,75.13-63.36,114.09-93.26,8.17-6.27,13.84-18.28,27.46-13.31,13.33,4.86,11.11,17.34,13.22,27.62,4.91,23.99,9.71,48,14.92,73.79,10.74-6.14,18.62-10.64,26.18-14.96-4.37-33.62-9.07-65.36-12.48-97.23-3.36-31.45-5.4-63.04-8.08-95.21-40.69,2.42-78.83,4.18-116.89,7.09-37.99,2.9-75.9,6.93-114.44,10.52-.32,7.27-.55,12.23-.79,17.8,28.31,2.16,54.75,3.44,80.96,6.62,8.5,1.03,19.17,4.93,23.91,11.23,7.04,9.36-3.14,16.75-9.25,23.66-14.91,16.87-31.2,32.73-44.36,50.87-29.22,40.27-68.3,70.71-102.46,106.01-2.08,2.15-5.29,3.23-8.89,5.34ZM242.04,150.37c6.85-5.1,11.9-8.57,16.57-12.49,1.63-1.36,2.32-3.83,5.05-8.59-18.85-3.08-36.39-5.94-53.93-8.81-.54,1.59-1.08,3.19-1.62,4.78,10.9,8.07,21.8,16.13,33.93,25.1Z"/>
  <path class="cls-2" d="M637.85,275.77c3.6-2.11,6.8-3.18,8.89-5.34,34.16-35.31,73.24-65.74,102.46-106.01,13.16-18.14,29.46-34,44.36-50.87,6.11-6.92,16.29-14.3,9.25-23.66-4.74-6.3-15.41-10.2-23.91-11.23-26.21-3.17-52.65-4.45-80.96-6.62.25-5.57.47-10.53.79-17.8,38.53-3.59,76.44-7.62,114.44-10.52,38.05-2.9,76.19-4.67,116.89-7.09,2.68,32.18,4.72,63.77,8.08,95.21,3.4,31.87,8.11,63.61,12.48,97.23-7.56,4.32-15.44,8.82-26.18,14.96-5.21-25.79-10.01-49.8-14.92-73.79-2.1-10.28.11-22.76-13.22-27.62-13.62-4.96-19.29,7.04-27.46,13.31-38.96,29.9-73.43,65.05-114.09,93.26-27.29,18.93-50.32,44.29-69.55,73.74,8.25,14.37,16.93,28.2,24.34,42.67,17.54,34.27,32.12,69.69,36.21,108.44,1.05,9.98.4,20.14.33,30.22-.05,6.24-1.92,12.84-.49,18.66,6.36,25.94-2.22,50.07-10.92,73.03-5.21,13.74-16.7,26.76-28.55,36.04-45.59,35.7-97.08,59.51-154.34,70.12-7.59,1.41-15.11,3.19-24,5.09,0,9.36-.31,17.77.06,26.16,1.15,25.8,2.56,51.58,3.86,77.37.08,1.56-.11,3.15.02,4.7,2.08,23.57,7.02,29.01,30.47,33.33,4.52.83,9.12,1.26,14.81,2.03v27.59c-13.6,2.97-27.87,6.08-43.97,9.59-2.6,23.34-5.22,46.93-7.98,71.76-17.42,1.81-33.43,3.47-51.11,5.31-1.61-14.78-2.63-27.8-4.52-40.69-5.23-35.72-7.3-37.53-45.05-40.07-.96-13.77-1.96-27.98-3.21-45.85,12.28,0,21.34-.18,30.4.04,14.27.36,18.53-2.36,20.05-16.14,1.2-10.85.79-21.88.85-32.84.11-21.07.84-42.18-.19-63.2-.87-17.72-3.52-19.87-20.18-23.21-10.74-2.15-21.67-3.37-32.43-5.44-58.13-11.18-109.17-36.9-149.86-79.71-20.83-21.92-28.68-51.6-32.76-81.56-.85-6.2-.25-12.86-2.29-18.61-22.1-62.19,1.26-117.73,25.57-172.83,5.53-12.53,15.26-23.19,24.65-37.07-22.65-20.98-44.85-41.55-69.42-64.31-17.33,16.14-33.05,30.77-50.02,46.58-3.56-2.88-8.09-6.53-13.06-10.55,13.7-16.6,26.44-32.03,40.56-49.13-17.76-13.54-36-28.17-55-41.72-19.4-13.84-39.56-26.63-63.38-42.54-9.43,47.6-6.77,90.39.39,134.35-8.71,2.95-15.75,5.33-25.7,8.7-6.06-81.98-11.74-161.57-4.44-241.25,39.6,5.54,77.43,10.95,115.3,16.09,37.9,5.14,75.85,10.01,115.3,15.2-.42,7.47-.74,13.27-1.03,18.3-32.51-2.93-63.46-6.12-94.49-8.23-8.24-.56-16.71,2.22-25.25,3.49-2.53,11.83-3.56,20.9,4.46,29.71,23.68,26.03,50.05,48.75,80.52,69.46,11.22-10.27,21.99-20.12,34.04-31.15,4.93,4.54,9.25,8.52,14.79,13.62-10.45,9.64-20.1,18.55-31.69,29.25,23.1,26.02,52.48,42.57,76.18,66.96,24.95-10.55,48.32-21.22,72.26-30.4,80.54-30.86,156.05-24.07,224.63,31.47,1.76,1.43,4.12,2.1,7.93,3.98ZM466.86,623.24c30.74-4.88,62.03-7.55,92.09-15.11,55.06-13.85,90.07-58.43,89.05-113.1-.84-44.97-12.59-84.7-35.52-121.76-11.35-18.34-22.63-38.93-45.01-46.04-44.39-14.12-89.04-32.19-135.47-6.32-41.95,4.83-69.55,34.29-97.18,60.74-35.44,33.93-39.52,112.16-11.79,158.36,32.34,53.88,79.31,82.62,143.84,83.23Z"/>
  <path class="cls-1" d="M466.86,623.24c-64.53-.61-111.5-29.35-143.84-83.23-27.73-46.2-23.65-124.43,11.79-158.36,27.63-26.45,55.23-55.9,97.18-60.74,46.43-25.88,91.08-7.8,135.47,6.32,22.38,7.12,33.66,27.7,45.01,46.04,22.93,37.05,34.69,76.79,35.52,121.76,1.02,54.67-33.99,99.24-89.05,113.1-30.06,7.56-61.35,10.23-92.09,15.11ZM470.59,585.71c12.48-.76,25.17-.38,37.4-2.57,17.63-3.16,35.26-7.14,52.29-12.66,34.4-11.15,49.54-33.52,52.29-69.12,2.55-33.04-4.29-64.52-18.62-92.94-9.41-18.66-24.93-37.23-42.49-48.21-43.41-27.15-90-13.98-135.46-2.41-1.42.36-2.69,1.55-3.86,2.56-16.55,14.24-34.61,27.14-49.08,43.25-9.94,11.07-20.18,26.24-21.14,40.21-3.23,46.89,6.93,89.34,49.1,119.34,24.59,17.49,50.99,22.12,79.58,22.56Z"/>
</svg>