<?xml version="1.0" encoding="UTF-8"?>
<svg id="Camada_1" data-name="Camada 1" xmlns="http://www.w3.org/2000/svg" viewBox="0 0 1000 1000">
  <defs>
    <style>
      .cls-1, .cls-2 {
        stroke-width: 0px;
      }

      .cls-2 {
        fill: #f5a9b8;
      }
    </style>
  </defs>
  <path class="cls-1" d="M476.24,403.64c-43.8,4.66-85.34,8.8-126.8,13.63-19.32,2.25-36.96,8.17-53.94,19.34-21.86,14.39-46.94,23.8-69.7,36.96-25.98,15.02-50.75,32.13-76.42,47.71-15.02,9.12-30.32,18.03-46.33,25.15-12.57,5.59-25.91,5.08-36.85-5.6-10.51-10.27-12.82-21.98-8.66-36.25,7.06-24.19,21.66-43.34,40.18-58.98,76.27-64.41,160.65-112.62,260.59-130.59,57.72-10.37,115.51-7.83,173.41-5.71,34.16,1.25,68.36,2.93,102.37,6.19,39.22,3.76,76.49,15.85,114.35,26.77,63.87,18.43,113,56.94,156.98,103.13,36.11,37.92,59.89,83.97,58.65,137.55-.71,30.74,2.89,63.33-17.96,91.55-19.98,27.04-44.96,47.83-74.92,60.6-49.52,21.1-101.92,23.25-155.47,19.1-51.35-3.98-97.7-23.31-145.67-38.57-28.71-9.14-58.74-14.41-88.46-19.91-7.74-1.43-17.01,1.65-24.74,4.74-13.53,5.4-17.04,12.64-15.75,27.54.33,3.85.78,7.8,1.98,11.43,15.76,47.51,41.38,88.07,83.76,116.35,23.82,15.89,48.75,30.19,71.98,46.87,23.32,16.75,23.91,39.95,5.02,61.91-6.94,8.07-14.25,11.07-24.3,10.2-48.46-4.21-94.63-14.39-132.86-47.49-34.58-29.93-66.77-62.08-94.37-98.64-21.51-28.5-25.59-62.23-28.86-96.24-3.25-33.79,4.92-65.51,24.58-92.06,27.7-37.39,64.88-62.82,112.79-66.52,33.99-2.62,68.41-2.84,101.22,9.08,21.11,7.67,41.86,16.37,62.49,25.27,30.57,13.19,60.88,26.95,91.29,40.51,2.12.95,4.27,3.29,6.18,3.05,19.88-2.41,40.94-2.03,59.16-8.98,13.19-5.04,26.9-18.02,32.75-30.91,10-22.04,10.99-46.73-1.29-69.71-16.8-31.45-38.53-57.14-72.36-72.54-47.37-21.58-95.5-41.37-146.29-51.91-39.13-8.12-79.62-9.73-117.73-14.03ZM590.59,930.93c-10.42-6.73-20.25-14.05-30.93-19.8-43-23.17-80.57-52.64-108.56-93.1-20.42-29.51-37.63-60.22-39.27-97.75-.77-17.61,5.83-29.95,18.66-40.17,21.7-17.28,47.72-20.13,72.66-14.23,47.26,11.17,94.12,24.57,140.28,39.7,53.64,17.59,108.17,21.75,163.42,14.75,43.71-5.53,82.07-23.84,108.96-60.43,6.66-9.06,12.9-20.39,14.01-31.23,7.15-69.93-13.12-130.11-66.84-177.51-50.91-44.92-108.04-76.59-175.04-92.21-68.25-15.92-137.26-23.04-206.8-26.32-22.91-1.08-46.39,2.05-69.1,6.09-38.11,6.77-77.17,12-113.34,24.88-41.31,14.71-82.93,31.27-117.42,60.39-2.36,1.99-5.09,3.61-7.83,5.05-34.09,17.96-62.59,42.42-85.28,73.53-4.16,5.7-14.67,10.1-8.1,19.26,6.84,9.53,15.59.88,23.46,0,2.22-.25,4.5-1.43,6.42-2.68,23.41-15.17,47.73-29.16,69.91-45.96,34.18-25.89,71.66-45.87,110.7-62.25,52.42-21.99,107.4-34.01,164.78-36.52,48.37-2.12,96.47-.76,143.39,9.41,52.98,11.49,103.78,30.95,152.54,55.09,43.02,21.3,72.33,55.85,91.49,98.8,18.22,40.84,8.38,87.73-25.16,116.08-32.28,27.29-69.66,41.4-111.91,25.42-44.13-16.68-88.12-33.99-131.04-53.53-32.14-14.63-64.33-18.98-99.16-15.65-65.6,6.27-103.69,38.36-115.23,101.41-9.8,53.59,7.19,99.03,44.56,137.51,12.42,12.8,26.02,24.5,37.98,37.7,34.07,37.6,77.6,54.2,126.73,60.26,12.53,1.55,16.67-3.84,21.08-16.01Z"/>
  <path class="cls-1" d="M269.81,707.43c-6.89,54.45,18.94,103.57,42.58,153.15,3.18,6.67,9.94,11.62,14.94,17.45,18.48,21.56,28.28,47.85,38.86,73.51,5.71,13.84,1.84,27.71-8.24,38.75-6.86,7.51-24.3,6.35-37.33.06-25.08-12.1-43.63-32.33-61.13-52.48-57.63-66.34-84.78-144.67-87.01-232.31-.85-33.51,1.35-66.24,11.6-98.39,12.91-40.5,36.04-73.11,70.26-98.53,44.19-32.83,93.58-50.13,148.25-53.5,36.9-2.27,73.87-7.84,110.64-6.69,66.36,2.07,131.19,13.53,187.97,51.6,12.13,8.13,24.4,17.44,33.13,28.86,8.05,10.54,13.29,24.21,16.38,37.3,3.32,14.04-6.46,25.37-21.96,26.01-11.97.5-25.8.31-35.85-5.07-38.39-20.56-80.48-27.74-122.04-36.55-62.27-13.2-125-10.98-187.26.07-26.75,4.75-52.4,14.1-74.06,32.01-30.22,24.98-38.39,58.87-39.68,95.68-.3,8.53-.04,17.09-.04,29.07ZM333.34,961.82c.69-17.46-5.39-29.47-14.77-41.69-17.85-23.26-36.21-46.72-49.87-72.48-28.27-53.35-36.66-111.46-33.85-171.51,1.24-26.48,4.59-52.72,16.38-76.31,16.5-33,42.58-56.89,77.76-69.82,44-16.17,90.23-23.86,136.34-26.09,60.67-2.94,120.7,6.43,178.12,27.97,22.12,8.3,43.96,17.3,70.05,27.62-11.95-19.64-26.04-31.12-41.88-39.82-41.49-22.78-87.09-31.42-133.52-36.86-41.92-4.91-83.62-2.37-125.27,2.89-51.12,6.46-99.77,17.05-141.85,51.47-33.69,27.56-56.13,61.1-62.08,102.11-11.14,76.65-1.07,151.59,33.96,221.78,18.17,36.41,42.3,68.36,75.24,92.93,4.09,3.05,9.18,4.76,15.24,7.81Z"/>
  <path class="cls-1" d="M433.83,159.32c54.24,1.02,108.71-.65,162.64,4.01,36.71,3.17,73.31,13.02,108.77,23.79,45.02,13.67,90.44,27.93,132.74,48.12,43.52,20.77,84.31,47.61,112.32,89.75,7.09,10.66,9.06,21.34,9.75,32.63,1,16.26-8.29,26.4-25.14,26.97-28.48.96-55.34-6.23-79.72-21.04-20.2-12.27-39.78-25.55-59.62-38.39-.65-.42-1.3-1.39-1.85-1.31-31.24,4.16-54.21-18.58-82.25-25.28-50.01-11.95-100.7-17.24-151.81-19.68-34.75-1.66-69.55-3.83-104.3-3.46-42.43.46-84.95,2.15-126.43,13.08-35.85,9.45-72.12,17.48-107.61,28.11-30.55,9.15-56.65,27.71-83.37,44.68-16.99,10.79-33.76,22.44-52.02,30.6-28.51,12.75-52.43-4.72-49.87-35.92,1.59-19.41,7.77-37.94,21.27-53.04.52-.58.9-1.27,1.37-1.89,33.36-44.32,81.6-64.25,131.84-81.5,18.9-6.49,36.96-15.56,55.06-24.17,53.71-25.55,110.59-34.63,169.52-33.62,6.22.11,12.44.01,18.66.01.02-.83.03-1.66.05-2.48ZM928.4,351.83c-14.18-23.18-30.35-41.28-51.13-55.07-20.61-13.68-42.38-25.74-62.21-40.45-16.56-12.28-34.01-21.61-53.79-26.66-37.6-9.6-75.17-19.39-112.99-28.07-18.8-4.32-38.07-8.51-57.22-9.01-57.42-1.5-114.89-1.65-172.33-1.43-80.3.31-156.78,16.02-226.16,58.79-4.57,2.82-9.75,5.17-14.95,6.38-40.13,9.3-67.45,36.8-92.49,66.53-8.24,9.78-16.3,22.41-10.67,40.33,17.97-10.68,35.51-19.19,50.89-30.62,37.3-27.73,78.26-46.85,123.29-57.78,50.43-12.24,100.19-28.07,152.59-30,31.47-1.16,63.01-2.03,94.49-1.42,70.53,1.37,140.95,4.76,210.02,21.04,41.09,9.68,79.4,26.69,116.91,45.44,22.17,11.08,43.39,24.08,65.4,35.51,11.54,5.99,23.97,9.76,40.37,6.48Z"/>
  <path class="cls-1" d="M502.65,4.94c50.62-2.2,100.61,4.1,149.86,14.39,37.45,7.83,74.7,18.21,108.06,38.04,29.56,17.57,56.79,38.2,69.2,72.15,3.32,9.08,4.43,19.41,4.37,29.15-.07,11.41-8.02,20.2-18.52,20.91-16.57,1.12-34.34,5.22-49.85-4.07-42.46-25.41-89.66-33.98-137.64-39.5-70.41-8.11-141.13-6.27-211.83-5.63-63.98.58-123.52,19.47-182.62,41.24-9.82,3.62-20.92,6.35-31.17,5.65-23.16-1.59-29.35-9.92-27.71-32.94,2.12-29.76,20.18-50.06,42.94-65.62,35.91-24.53,77.08-37.59,117.76-52.39,44.89-16.34,90.96-17.83,137.22-21.28,9.93-.74,19.96-.11,29.95-.11ZM792.61,145.08c1.21-2.06,2.43-4.12,3.64-6.17-8.54-13.6-18.97-25.48-31.76-35.8-32.31-26.06-70.74-38.25-109.97-47.39-78.59-18.31-158.53-18.3-238.38-12.25-25.33,1.92-50.88,7.73-75.12,15.51-30.13,9.67-59.5,22.15-88.26,35.45-22.61,10.46-40.82,26.22-42.2,55.86,21.66-7.23,41.74-13.22,61.3-20.6,78.89-29.78,161.16-37.62,244.44-36.39,45.41.67,90.98,3.53,136.05,8.93,32.79,3.93,66.02,8.87,96.25,24.91,13.92,7.39,29.3,12.04,44.01,17.93Z"/>
  <path class="cls-1" d="M508.82,743.57c20.25-5.05,37.33-2.9,54.9,6.78,35.99,19.83,75.34,31.26,114.88,41.94,34.48,9.32,68.83,16.4,105.09,12.13,18.96-2.23,38.57-1.65,57.64.22,31.48,3.08,45.58,23.5,39.18,52.96-3.38,15.56-14.53,22.88-27.9,28.35-51.83,21.19-104.61,17.48-157.83,6.54-46.03-9.46-87.83-30.29-130.72-48.1-16.3-6.77-30.55-17.02-42.72-30.73-18.44-20.77-23.19-42.89-12.51-70.07ZM856.42,853.5c-.04-2.71-.09-5.42-.13-8.13-6.28-3.24-12.43-8.92-18.85-9.25-15.4-.78-30.91,1.29-46.39,1.58-21.6.4-43.54,2.69-64.75-.16-58.18-7.84-112.25-28.22-162.53-58.79-10.13-6.15-21.75-9.85-36-16.14,4.42,24.03,14.33,39.29,31.42,48.08,53.82,27.7,109.24,51.03,169.69,60.76,33.56,5.41,66.42,4.74,98.83-5.25,9.93-3.06,19.16-8.4,28.71-12.7Z"/>
  <path class="cls-2" d="M590.59,930.93c-4.41,12.17-8.54,17.55-21.08,16.01-49.13-6.07-92.65-22.67-126.73-60.26-11.96-13.2-25.55-24.9-37.98-37.7-37.36-38.48-54.36-83.92-44.56-137.51,11.53-63.06,49.63-95.15,115.23-101.41,34.83-3.33,67.03,1.02,99.16,15.65,42.91,19.54,86.91,36.85,131.04,53.53,42.25,15.97,79.63,1.87,111.91-25.42,33.54-28.35,43.38-75.24,25.16-116.08-19.16-42.95-48.47-77.5-91.49-98.8-48.76-24.14-99.56-43.6-152.54-55.09-46.92-10.17-95.03-11.53-143.39-9.41-57.38,2.51-112.36,14.53-164.78,36.52-39.04,16.38-76.52,36.36-110.7,62.25-22.18,16.8-46.5,30.79-69.91,45.96-1.93,1.25-4.2,2.43-6.42,2.68-7.88.88-16.62,9.52-23.46,0-6.58-9.16,3.94-13.56,8.1-19.26,22.69-31.11,51.2-55.57,85.28-73.53,2.74-1.44,5.48-3.06,7.83-5.05,34.49-29.12,76.11-45.68,117.42-60.39,36.17-12.88,75.23-18.11,113.34-24.88,22.72-4.03,46.19-7.17,69.1-6.09,69.54,3.28,138.54,10.41,206.8,26.32,67,15.62,124.13,47.29,175.04,92.21,53.72,47.4,74,107.57,66.84,177.51-1.11,10.83-7.35,22.17-14.01,31.23-26.89,36.6-65.25,54.9-108.96,60.43-55.25,6.99-109.77,2.84-163.42-14.75-46.16-15.14-93.02-28.53-140.28-39.7-24.94-5.9-50.96-3.04-72.66,14.23-12.83,10.22-19.43,22.55-18.66,40.17,1.64,37.53,18.85,68.24,39.27,97.75,27.99,40.45,65.55,69.93,108.56,93.1,10.68,5.75,20.51,13.07,30.93,19.8Z"/>
  <path class="cls-2" d="M333.34,961.82c-6.06-3.05-11.15-4.76-15.24-7.81-32.94-24.57-57.07-56.52-75.24-92.93-35.03-70.2-45.1-145.13-33.96-221.78,5.96-41.01,28.39-74.55,62.08-102.11,42.08-34.42,90.73-45.01,141.85-51.47,41.65-5.27,83.35-7.81,125.27-2.89,46.43,5.44,92.04,14.09,133.52,36.86,15.85,8.7,29.94,20.19,41.88,39.82-26.09-10.31-47.94-19.32-70.05-27.62-57.43-21.54-117.46-30.91-178.12-27.97-46.1,2.23-92.33,9.92-136.34,26.09-35.18,12.93-61.26,36.82-77.76,69.82-11.79,23.59-15.15,49.83-16.38,76.31-2.81,60.05,5.58,118.16,33.85,171.51,13.65,25.76,32.02,49.22,49.87,72.48,9.38,12.22,15.46,24.23,14.77,41.69Z"/>
  <path class="cls-2" d="M928.4,351.83c-16.4,3.27-28.83-.49-40.37-6.48-22.01-11.43-43.22-24.43-65.4-35.51-37.52-18.75-75.83-35.76-116.91-45.44-69.07-16.27-139.49-19.66-210.02-21.04-31.48-.61-63.01.26-94.49,1.42-52.39,1.92-102.15,17.76-152.59,30-45.03,10.93-85.99,30.05-123.29,57.78-15.37,11.43-32.91,19.94-50.89,30.62-5.63-17.92,2.43-30.55,10.67-40.33,25.04-29.72,52.36-57.23,92.49-66.53,5.21-1.21,10.38-3.56,14.95-6.38,69.38-42.77,145.86-58.48,226.16-58.79,57.44-.22,114.91-.08,172.33,1.43,19.15.5,38.42,4.69,57.22,9.01,37.82,8.68,75.38,18.48,112.99,28.07,19.77,5.05,37.23,14.38,53.79,26.66,19.83,14.7,41.6,26.77,62.21,40.45,20.79,13.79,36.96,31.89,51.13,55.07Z"/>
  <path class="cls-2" d="M792.61,145.08c-14.72-5.89-30.09-10.55-44.01-17.93-30.23-16.04-63.46-20.98-96.25-24.91-45.07-5.4-90.64-8.26-136.05-8.93-83.28-1.23-165.55,6.61-244.44,36.39-19.56,7.38-39.64,13.37-61.3,20.6,1.38-29.65,19.58-45.4,42.2-55.86,28.76-13.31,58.13-25.78,88.26-35.45,24.24-7.78,49.79-13.59,75.12-15.51,79.85-6.05,159.8-6.06,238.38,12.25,39.23,9.14,77.66,21.33,109.97,47.39,12.79,10.32,23.22,22.19,31.76,35.8-1.21,2.06-2.43,4.12-3.64,6.17Z"/>
  <path class="cls-2" d="M856.42,853.5c-9.55,4.3-18.78,9.64-28.71,12.7-32.41,9.99-65.27,10.66-98.83,5.25-60.45-9.74-115.87-33.07-169.69-60.76-17.08-8.79-26.99-24.05-31.42-48.08,14.25,6.3,25.87,9.99,36,16.14,50.28,30.56,104.34,50.94,162.53,58.79,21.21,2.86,43.15.57,64.75.16,15.48-.29,31-2.37,46.39-1.58,6.42.33,12.58,6,18.85,9.25.04,2.71.09,5.42.13,8.13Z"/>
</svg>