<svg width="67" height="60" viewBox="0 0 67 60" fill="none" xmlns="http://www.w3.org/2000/svg">
<path d="M27.5 12C25.85 12 24.4375 11.4125 23.2625 10.2375C22.0875 9.0625 21.5 7.65 21.5 6C21.5 4.35 22.0875 2.9375 23.2625 1.7625C24.4375 0.5875 25.85 0 27.5 0C29.15 0 30.5625 0.5875 31.7375 1.7625C32.9125 2.9375 33.5 4.35 33.5 6C33.5 7.65 32.9125 9.0625 31.7375 10.2375C30.5625 11.4125 29.15 12 27.5 12ZM47 48C49.1 48 50.875 47.275 52.325 45.825C53.775 44.375 54.5 42.6 54.5 40.5C54.5 38.4 53.775 36.625 52.325 35.175C50.875 33.725 49.1 33 47 33C44.9 33 43.125 33.725 41.675 35.175C40.225 36.625 39.5 38.4 39.5 40.5C39.5 42.6 40.225 44.375 41.675 45.825C43.125 47.275 44.9 48 47 48ZM62.3 60L54.2 51.9C53.1 52.6 51.95 53.125 50.75 53.475C49.55 53.825 48.3 54 47 54C43.25 54 40.0625 52.6875 37.4375 50.0625C34.8125 47.4375 33.5 44.25 33.5 40.5C33.5 36.75 34.8125 33.5625 37.4375 30.9375C40.0625 28.3125 43.25 27 47 27C50.75 27 53.9375 28.3125 56.5625 30.9375C59.1875 33.5625 60.5 36.75 60.5 40.5C60.5 41.8 60.325 43.05 59.975 44.25C59.625 45.45 59.1 46.6 58.4 47.7L66.5 55.8L62.3 60ZM30.5 60V50.925C31.25 52.125 32.1375 53.225 33.1625 54.225C34.1875 55.225 35.3 56.125 36.5 56.925V60H30.5ZM18.5 60V21C15.45 20.75 12.425 20.3875 9.425 19.9125C6.425 19.4375 3.45 18.8 0.5 18L2 12C6.2 13.15 10.4125 13.9375 14.6375 14.3625C18.8625 14.7875 23.15 15 27.5 15C31.85 15 36.1375 14.7875 40.3625 14.3625C44.5875 13.9375 48.8 13.15 53 12L54.5 18C51.55 18.8 48.575 19.4375 45.575 19.9125C42.575 20.3875 39.55 20.75 36.5 21V24.075C33.8 25.825 31.625 28.1375 29.975 31.0125C28.325 33.8875 27.5 37.05 27.5 40.5V41.25C27.5 41.5 27.525 41.75 27.575 42H24.5V60H18.5Z" fill="#A0CAE0"/>
</svg>
