<?xml version="1.0" encoding="UTF-8"?>
<svg id="Camada_1" data-name="Camada 1" xmlns="http://www.w3.org/2000/svg" viewBox="0 0 1000 1000">
  <defs>
    <style>
      .cls-1, .cls-2 {
        stroke-width: 0px;
      }

      .cls-2 {
        fill: #f5a9b8;
      }
    </style>
  </defs>
  <path class="cls-1" d="M343.8,690.57c-4.18,11.91-7.81,22.9-6.01,36.94,3.94,30.71,4.13,61.88,6.22,92.84,1.57,23.28,3.68,46.53,5.6,69.79.16,1.93.89,3.82,1.04,5.75,1.4,19.05-6.59,26.67-26.1,26.47-29.15-.31-58.3-.05-87.46.18-12.35.1-21.19-6.9-22.27-19.34-1.78-20.64-2.93-41.33-4.48-61.99-2.57-34.2-4.24-68.5-8.21-102.54-2.89-24.84-8.86-49.31-14.04-77.06-24.4-5.75-52.18-11.8-79.68-18.95-21.97-5.71-43.72-12.36-65.31-19.38-11.67-3.79-20.09-11.25-22.29-24.62-1.68-10.22-5.8-20.05-7.34-30.28-3.98-26.39-8.62-52.82-10.24-79.41C.83,449.68.53,410.24,0,370.85c-.14-10.17,2.22-20.37,3.5-31.13,34.58-26.97,75.81-41.78,117.59-53.17,49.11-13.39,96.44-31.07,143.72-49.37,25.42-9.84,50.4-21.62,76.66-28.3,34.94-8.89,65.52-27.18,98.23-40.69,29.68-12.26,56.96-30.2,85.92-44.36,25.55-12.49,49.88-28.02,78.7-33.19,5.29-.95,9.72-6.22,14.77-9.09,16.6-9.42,32.12-2.04,33.42,16.79,1.21,17.52.81,35.17.76,52.76-.14,48.57-.45,97.14-.74,145.71-.16,26.55-.98,53.1-.47,79.64.6,31.63,2.82,63.23,3.38,94.86.47,26.44-2.22,53.04-.33,79.34,3.48,48.26,9.46,96.33,14.03,144.52,1.03,10.83.88,21.8.74,32.7-.18,13.73-6.33,19.65-19.46,19.5-4.55-.05-9.19.34-13.63-.42-42.19-7.24-84.41-14.28-126.48-22.18-45.98-8.63-91.82-18.05-137.7-27.28-9.35-1.88-18.57-4.44-28.83-6.93ZM621.69,121.54c-9.87,2.5-17.6,3.25-24.26,6.33-38.24,17.72-76.17,36.08-114.3,54.04-22.81,10.75-45.7,21.36-68.7,31.69-14.73,6.62-29.55,13.11-44.65,18.84-59.94,22.74-122.39,38.34-181.27,64.24-17.68,7.77-36.63,12.63-54.95,18.96-28.22,9.75-56.31,19.92-84.66,29.27-9.6,3.16-14.22,9.02-13.86,18.53,1.79,46.04-1.2,92.27,6.57,138.08,4.23,24.94,7.45,50.08,10.37,75.22,2.39,20.52,2.63,21.61,22.95,26.33,33.53,7.8,67.2,15.02,100.63,23.21,16.86,4.13,34.1,8.33,44.89,20.72.85,15.61,1.32,29.12,2.37,42.6,2.21,28.46,4.14,56.97,7.28,85.33,3.06,27.64,7.6,55.12,11.27,82.7,1.51,11.35,2.44,22.77,3.6,33.82h74.08c0-25.76.44-50.12-.1-74.46-.9-40.25-2.68-80.48-3.57-120.73-.4-18.11,7.39-26.81,25.51-26.19,18.08.62,36.18,3.39,54.05,6.47,66.64,11.45,133.17,23.58,199.8,35.06,15.06,2.59,30.39,3.58,44.88,5.22,0-29.31,1.37-57.36-.35-85.21-2.09-33.69-8.23-67.15-10.06-100.84-3.06-56.4-4.65-112.91-5.84-169.39-1.21-57.21-1.23-114.44-1.66-171.66-.16-21.39-.03-42.79-.03-68.16Z"/>
  <path class="cls-1" d="M691.83,226.4c13.86-4.5,22.24-1.6,30.88,4.59,26.47,18.95,45.76,43.44,62.9,71.02,20.83,33.53,31.35,68.94,33.5,108.02,2.23,40.48-8.02,77.97-20.85,115.69-12.09,35.53-37.87,56.47-69.39,72.01-9.53,4.7-21.04,5.39-33.88,8.45-2.22-9.47-6.33-17.64-5.53-25.28,2.87-27.38-5.6-53.88-4.82-81.02.73-25.28,1.05-50.58.98-75.87-.05-18.06-1.49-36.11-1.51-54.17-.03-27.92-.13-55.88,1.22-83.75.97-19.99,4.26-39.87,6.5-59.69ZM718.7,574.53c17.39-11.92,32.63-22.27,40.55-40.44,9.35-21.44,22.78-41.91,27.64-64.28,5.15-23.68,4.62-49.32,2.25-73.68-1.99-20.35-7.21-41.63-16.42-59.73-12.89-25.33-30.21-48.54-46.96-71.69-5.45-7.53-11.29-16.9-22.19-19.56,1.07,32.96,2.03,64.54,3.12,96.11,1.62,46.71,2.9,93.45,5.16,140.13,1.46,30.32,4.41,60.57,6.86,93.15Z"/>
  <path class="cls-1" d="M857.91,255.46c-13.48.79-26.95,1.68-40.44,2.36-18.4.93-23.08-4.42-17.16-21.65,9.48-27.58,20.13-54.76,29.88-82.25,5.77-16.27,10.88-32.78,16.01-49.27,2.39-7.68,4.94-15.21,13.78-17.26,6.16-1.43,19.25,7.77,23.61,14.82,10.4,16.8,21.23,33.33,31.77,50.04,10.72,16.99,20.95,34.31,32.09,51.02,9.37,14.05,8.19,26.35-7.02,31.5-26.85,9.09-54.58,15.58-81.94,23.15-.19-.81-.39-1.62-.58-2.43ZM871.39,144.06c-1.47.04-2.95.08-4.42.13-9.42,26.28-18.84,52.56-29.55,82.43,24.83-5.65,46.44-10.58,70.9-16.15-13.44-24.17-25.19-45.29-36.94-66.41Z"/>
  <path class="cls-1" d="M998.54,504.55c-14.34-9.04-25.69-15.98-36.83-23.25-27.16-17.72-54.2-35.63-81.34-53.37-8.15-5.32-16.69-10.06-24.67-15.61-8.12-5.64-8.91-11.55-1.69-17.2,31.42-24.63,60.39-52.88,98.63-67.64,3.48-1.34,7.12-3.72,9.33-6.64,6.42-8.48,13.51-4.88,20.97-2.37,8.18,2.76,10.12,8.36,10.32,16.52,1.25,50.92-.52,101.99,6.6,152.67.52,3.7-.53,7.62-1.32,16.88ZM959.72,355.96c-28.12,8.85-52.28,22.53-75.46,39.61,27.7,16.18,53.8,31.44,81.86,47.84-4.64-29.2,2.06-56.93-6.4-87.44Z"/>
  <path class="cls-1" d="M853.31,721.27c-9.96.93-12.73-4.6-14.56-12.67-9.28-41.09-19.03-82.07-28.38-123.14-4.94-21.68,3.44-31.33,25.62-28.54,11.49,1.45,22.83,4.71,33.99,7.98,24.95,7.31,49.85,14.83,74.58,22.84,18.31,5.93,22.64,19.3,11.67,34.7-24.94,35.01-55.32,65.04-87.13,93.64-3.77,3.39-10.46,3.54-15.8,5.19ZM925.2,608.88c-33.63-6.25-60.46-23.14-92.15-27.05,10.27,32.52,20.01,63.35,30.26,95.79,24.49-17.91,42.74-40.76,61.88-68.74Z"/>
  <path class="cls-2" d="M621.69,121.54c0,25.37-.14,46.77.03,68.16.43,57.22.46,114.46,1.66,171.66,1.19,56.48,2.78,112.99,5.84,169.39,1.83,33.7,7.97,67.15,10.06,100.84,1.73,27.85.35,55.89.35,85.21-14.49-1.64-29.82-2.63-44.88-5.22-66.64-11.48-133.16-23.6-199.8-35.06-17.88-3.07-35.98-5.85-54.05-6.47-18.12-.62-25.91,8.09-25.51,26.19.89,40.25,2.68,80.48,3.57,120.73.54,24.34.1,48.7.1,74.46h-74.08c-1.16-11.05-2.09-22.47-3.6-33.82-3.67-27.58-8.21-55.06-11.27-82.7-3.14-28.37-5.07-56.87-7.28-85.33-1.05-13.47-1.52-26.99-2.37-42.6-10.79-12.38-28.03-16.59-44.89-20.72-33.43-8.2-67.1-15.42-100.63-23.21-20.33-4.73-20.56-5.81-22.95-26.33-2.92-25.14-6.14-50.28-10.37-75.22-7.77-45.8-4.78-92.04-6.57-138.08-.37-9.51,4.26-15.36,13.86-18.53,28.36-9.34,56.44-19.52,84.66-29.27,18.32-6.33,37.27-11.19,54.95-18.96,58.88-25.89,121.33-41.5,181.27-64.24,15.09-5.73,29.92-12.22,44.65-18.84,23-10.34,45.89-20.94,68.7-31.69,38.12-17.97,76.06-36.32,114.3-54.04,6.65-3.08,14.39-3.84,24.26-6.33ZM592.74,622.42c-1.07-8.43-1.68-15.37-2.86-22.22-3.22-18.6-8.12-37.03-9.76-55.76-3.45-39.52-6.34-79.16-7.43-118.81-1.47-53.31-1.1-106.67-1.34-160.01-.04-9.69-.35-19.63,1.56-29.03,2.38-11.69.1-20.39-10.38-27.09-4.35,1.03-8.87,1.66-13.08,3.17-30.42,10.97-60.49,23.04-91.24,32.98-38.29,12.39-77.2,22.89-115.73,34.57-33.51,10.16-67.04,20.34-100.26,31.41-41.33,13.77-82.4,28.33-123.5,42.81-17.95,6.32-33,16.36-33.66,37.58-.65,20.67-1.4,41.66,1.38,62.03,4.38,32.08,12.09,63.7,17.6,95.64,4.23,24.5,4.45,25.49,28.76,27.43,21.76,1.73,43.72,1.87,65.29,4.87,66.98,9.32,133.76,20.04,200.72,29.5,58,8.19,116.37,12.34,174.96,12.88,5.65.05,11.3-1.12,18.95-1.93Z"/>
  <path class="cls-2" d="M718.7,574.53c-2.45-32.58-5.4-62.83-6.86-93.15-2.26-46.68-3.54-93.42-5.16-140.13-1.09-31.57-2.06-63.15-3.12-96.11,10.9,2.66,16.74,12.03,22.19,19.56,16.76,23.15,34.07,46.36,46.96,71.69,9.22,18.1,14.44,39.38,16.42,59.73,2.38,24.36,2.9,50-2.25,73.68-4.86,22.37-18.29,42.84-27.64,64.28-7.92,18.17-23.16,28.52-40.55,40.44Z"/>
  <path class="cls-2" d="M871.39,144.06c11.75,21.12,23.49,42.24,36.94,66.41-24.46,5.57-46.08,10.5-70.9,16.15,10.71-29.87,20.13-56.15,29.55-82.43,1.47-.04,2.95-.08,4.42-.13Z"/>
  <path class="cls-2" d="M959.72,355.96c8.46,30.51,1.76,58.25,6.4,87.44-28.06-16.4-54.16-31.65-81.86-47.84,23.18-17.08,47.34-30.76,75.46-39.61Z"/>
  <path class="cls-2" d="M925.2,608.88c-19.14,27.98-37.39,50.83-61.88,68.74-10.25-32.45-19.99-63.27-30.26-95.79,31.69,3.91,58.51,20.81,92.15,27.05Z"/>
  <path class="cls-1" d="M592.74,622.42c-7.65.82-13.31,1.98-18.95,1.93-58.59-.54-116.96-4.69-174.96-12.88-66.96-9.46-133.74-20.18-200.72-29.5-21.57-3-43.53-3.13-65.29-4.87-24.31-1.94-24.53-2.92-28.76-27.43-5.51-31.95-13.22-63.56-17.6-95.64-2.78-20.37-2.03-41.36-1.38-62.03.66-21.22,15.72-31.26,33.66-37.58,41.09-14.47,82.16-29.04,123.5-42.81,33.22-11.07,66.74-21.25,100.26-31.41,38.53-11.68,77.43-22.18,115.73-34.57,30.75-9.95,60.81-22.01,91.24-32.98,4.21-1.52,8.73-2.14,13.08-3.17,10.49,6.7,12.76,15.4,10.38,27.09-1.91,9.4-1.6,19.33-1.56,29.03.23,53.34-.13,106.7,1.34,160.01,1.09,39.65,3.98,79.29,7.43,118.81,1.63,18.73,6.54,37.16,9.76,55.76,1.19,6.84,1.8,13.79,2.86,22.22ZM538.07,251.69c-26.46,8.23-50.19,15.06-73.54,22.99-42.95,14.59-85.48,30.59-130.59,37.6-8.36,1.3-17.18.82-25.15,3.24-32.75,9.96-65.19,20.94-97.87,31.13-24.73,7.71-49.44,15.71-74.58,21.85-20.08,4.91-24.63,7.32-25.88,27.43-.96,15.45-1.36,31.3.96,46.53,5.54,36.42,12.84,72.58,19.59,109.77,22.68,1.29,44.78,1.1,66.45,4.05,57.22,7.8,114.21,17.17,171.36,25.48,32.68,4.75,65.4,9.58,98.26,12.66,28.95,2.71,58.12,3.07,87.2,4.35,3.8.17,7.64-.42,12.45-.72-31.21-113.28-26.03-228.79-28.67-346.36Z"/>
</svg>