<svg width="64" height="64" viewBox="0 0 64 64" fill="none" xmlns="http://www.w3.org/2000/svg">
<path d="M54.5 38V18.5L39.5 8L24.5 18.5V23H18.5V15.5L39.5 0.5L60.5 15.5V38H54.5ZM41 20H44V17H41V20ZM35 20H38V17H35V20ZM41 26H44V23H41V26ZM35 26H38V23H35V26ZM18.5 51.5L39.35 57.2L57.2 51.65C56.95 51.2 56.5875 50.8125 56.1125 50.4875C55.6375 50.1625 55.1 50 54.5 50H39.35C38 50 36.925 49.95 36.125 49.85C35.325 49.75 34.5 49.55 33.65 49.25L26.675 46.925L28.325 41.075L34.4 43.1C35.25 43.35 36.25 43.55 37.4 43.7C38.55 43.85 40.25 43.95 42.5 44C42.5 43.45 42.3375 42.925 42.0125 42.425C41.6875 41.925 41.3 41.6 40.85 41.45L23.3 35H18.5V51.5ZM0.5 62V29H23.3C23.65 29 24 29.0375 24.35 29.1125C24.7 29.1875 25.025 29.275 25.325 29.375L42.95 35.9C44.6 36.5 45.9375 37.55 46.9625 39.05C47.9875 40.55 48.5 42.2 48.5 44H54.5C57 44 59.125 44.825 60.875 46.475C62.625 48.125 63.5 50.3 63.5 53V56L39.5 63.5L18.5 57.65V62H0.5ZM6.5 56H12.5V35H6.5V56Z" fill="#A0CAE0"/>
</svg>
