<?xml version="1.0" encoding="UTF-8"?>
<svg id="Camada_1" data-name="Camada 1" xmlns="http://www.w3.org/2000/svg" viewBox="0 0 1000 1000">
  <defs>
    <style>
      .cls-1 {
        fill: #5bcefa;
      }

      .cls-1, .cls-2 {
        stroke-width: 0px;
      }
    </style>
  </defs>
  <path class="cls-2" d="M881.96,364.4c-94.15-62.7-189.32-120.11-275.79-191.82-30.38,18.38-59.12,35.69-87.77,53.14-10.23,6.23-20.27,11.87-31.98,16.03-17.15,6.09-32.67,17.42-48.03,27.78-22.59,15.25-44.06,32.17-66.72,47.31-13.09,8.74-27.27,16.06-41.56,22.72-9.19,4.29-12.26,10.7-13.53,20.02-3.3,24.26-7.26,48.44-11.18,72.61-3.07,18.93-6.36,21.71-26.32,21.42-20.83-.3-41.68-.71-62.47-1.86-15.71-.86-22.42-7.41-22.41-23.22.02-31.64,1.16-63.28,1.88-94.92.19-8.59,1.84-17.39.5-25.72-1.97-12.23,2.59-20.51,11.99-26.96,31.94-21.89,63.41-44.54,96.12-65.21,36.36-22.97,74.12-43.72,110.82-66.17,18.29-11.19,36.33-23.07,53.17-36.31,31.28-24.6,65.98-43.63,100.22-63.37,9.33-5.38,15.68-16.6,29.9-14.1,9.52,1.67,17.85,1.9,23.89,11.23,3.7,5.72,9.75,10.49,15.72,14.07,51.05,30.59,102.65,60.28,153.41,91.35,31.11,19.04,61.06,39.99,91.48,60.17,27.45,18.22,54.92,36.41,82.16,54.94,6.51,4.43,12.53,9.76,18.05,15.4,2.82,2.88,5.72,7.37,5.68,11.09-.92,81.78,4.06,163.52,1.11,245.31-1.61,44.55-2.47,89.12-3.71,133.68-.34,12.26-6.99,20.57-19.63,20.46-19.3-.17-38.67-1.71-57.82-4.16-9.23-1.18-16.59-5.78-16.95-18.14-1.28-43.03-3.75-86.02-5.66-129.02-1.51-34.09,2.64-68.08-3.71-102.43-4.46-24.11-.86-49.71-.86-75.32ZM603.69,72.3c-9.45,6.37-20.49,14.13-31.84,21.4-26.55,17-53.59,33.26-79.82,50.75-46.26,30.83-91.1,63.95-143.23,84.88-5.93,2.38-11.26,6.34-16.75,9.75-15.87,9.83-31.47,20.12-47.57,29.54-16.77,9.81-33.82,19.18-51.1,28.04-9.05,4.64-11.65,10.98-10.96,20.82,1.26,17.94,1.26,35.96,1.74,53.95.43,16.27.8,32.55,1.21,49.19,19.33,1.11,36.25,2.08,54.77,3.15,1.44-18.9,4.72-36.85,3.66-54.53-1.24-20.66,7.41-34.34,22.88-45.68,23.2-17,46.09-34.43,69.53-51.08,26.92-19.12,52.8-40.51,81.88-55.59,33.2-17.21,64.81-36.68,96.59-56.07,25.95-15.83,52.31-20.31,78.71-2.24,49.73,34.03,98.9,68.88,148.59,102.96,19.43,13.33,39.7,25.42,59.48,38.24,18.67,12.1,37.27,24.3,55.74,36.71,7.62,5.12,11.28,12.27,11.33,21.94.05,11.46,1.81,22.91,2.54,34.38,2.14,33.67,4.62,67.33,6.09,101.04,2.2,50.34,3.58,100.72,5.55,151.07.24,6.07,1.96,12.07,3.19,19.26,9.34-1.15,16.86-2.08,24.48-3.01,1.57-21.91,2.99-41.98,4.45-62.04,1.66-22.96,4.7-45.92,4.78-68.89.26-71.99-.86-143.98-.71-215.97.02-10.96-3.74-17.31-12.76-22.4-25.01-14.12-50.14-28.07-74.56-43.17-35.32-21.85-69.94-44.84-105.1-66.96-18.23-11.47-37.62-21.17-55.37-33.31-35.48-24.26-70.19-49.64-107.43-76.13Z"/>
  <path class="cls-2" d="M225.97,601.55c18-7.43,34.52-14.1,50.93-21.05,24.4-10.33,47.96-23.66,73.28-30.49,25.36-6.84,54.46-11.2,72.98,15.17,18.18,25.89,28.23,60.87,1.22,88.2-10.83,10.96-21.98,21.59-34.47,33.83,28.85,1.79,53.67-4.34,77.24-18.01,24.25-14.07,49.71-25.55,77.22-32.22,11.32-2.75,19.9-1.32,29.78,6.04,20.84,15.52,28.86,36.17,30.28,60.77.45,7.81,1.38,15.6,2.12,23.76,25.35,4.02,38.09,19.49,41.78,43.06,3.78,24.14-17.04,36.17-28.23,54.2,10.36,9.79,18.63,20.66,15.13,35.73-4.28,18.46-10.53,36.54-26.39,48.02-10.19,7.37-22.26,12.98-34.3,16.78-32.11,10.13-64.24,20.85-97.12,27.7-59.48,12.39-119.94,16.2-179.89,4.32-38.56-7.64-71.73-27.44-100.82-54.61-25.25-23.58-47.68-48.87-66.1-78.27-22.06-35.21-46.24-69.03-58.38-109.53-1.47-4.89-6.69-8.77-10.48-12.83-7.28-7.81-15.43-14.89-22.03-23.22-8.38-10.57-15.67-22.01-23.24-33.2-10.18-15.04-10.79-24.99,1.2-39,27.66-32.35,60.19-57.3,104.16-63.45,14.16-1.98,28.1-5.52,42.18-8.13,22.46-4.15,40.84,6.98,48.4,28.86,4.13,11.96,8.58,23.8,13.56,37.54ZM427.13,839.16c5.18-17.42,5.73-18.66,20.14-14.5,15.53,4.49,31.02,6.81,46.82,4.43,29.1-4.39,58.39-8.27,86.98-15,15.36-3.61,28.35-14.31,36.52-28.7,9.04-15.93,1.61-30.29-16.43-29.44-12.54.6-25.8,3.94-37.09,9.43-40.25,19.57-82.58,23.58-126.28,20.19-8.32-.64-13.97-4.64-18.3-14.47,12.16-1.31,21.98-2.42,31.81-3.42,29.48-3,58.21-8.86,85.7-20.44,30.67-12.92,34.66-19.8,28.17-52.28-4.07-20.38-7.72-23.95-27.42-19.69-31.5,6.81-63.61,12.62-93.67,23.72-30.98,11.44-61.97,10.68-93.45,9.86-11.23-.29-22.44-3.2-30.5-12.31,9.25-16.3,19.99-27.74,37.96-35.36,15.38-6.53,31.09-17.63,39.43-35.09,6.17-12.92,5.17-24.64-1.34-36.7-6.74-12.48-17.87-13.9-29.77-10.93-14.54,3.63-29.04,7.77-43.06,13.02-20.85,7.81-40.98,17.62-61.96,25.02-16.63,5.87-35.38,5.55-49.47,18.77-3.34,3.13-9.41,3.21-14.04,5.15-30.35,12.72-61.17,24.48-90.79,38.72-21.91,10.53-22.26,15.76-10.28,36.3.72,1.23,1.93,2.16,2.7,3.36,15.88,24.82,31.56,49.77,47.64,74.47,21.99,33.77,45.25,66.26,77.49,91.66,44.68,35.2,95.53,50.31,151.31,46.26,47.27-3.43,94.38-9.91,141.35-16.52,28.6-4.02,55.76-12.78,77.5-33.9,9.85-9.57,14.58-19.04,7.06-33.62-6.55-.41-13.65-1.63-20.62-1.13-13.55.98-27,3.61-40.56,4.33-37.91,2.01-76.17,6.68-113.58-11.19ZM190.44,607.28c-.7-5.67-.95-9.87-1.76-13.97-4.48-22.55-11.28-27.44-33.99-24.51-39.25,5.06-74.33,19.08-104.66,45.42-8.9,7.73-11.15,14.74-6.48,23.96,6.6,13.02,14.43,25.42,22.71,39.78,18.75-25.98,41.29-39.92,68.15-48.45,18.98-6.03,37.15-14.63,56.04-22.22Z"/>
  <path class="cls-2" d="M539.36,436.06c-27.6,1.29-53.71,2.5-81.51,3.8v-67.78h82.9c6.33,19.45,1.01,39.6-1.4,63.98Z"/>
  <path class="cls-2" d="M644.07,438.13v-66.28h82.98c5.89,20.15,1.17,40.29-1.52,62.24-26.89,5.3-53.56,5.89-81.45,4.04Z"/>
  <path class="cls-2" d="M644.05,571.98v-67.99h83.21c5.41,20.4.99,40.53-1.94,63.78-26.15,1.35-52.09,2.7-81.28,4.21Z"/>
  <path class="cls-2" d="M457.82,569.78v-65.81h83.26c5.35,20.48.94,40.61-1.86,63.43-13.63.8-26.91,1.88-40.21,2.29-12.67.39-25.36.08-41.18.08Z"/>
  <path class="cls-1" d="M603.69,72.3c37.24,26.49,71.95,51.87,107.43,76.13,17.75,12.14,37.14,21.84,55.37,33.31,35.16,22.12,69.77,45.11,105.1,66.96,24.42,15.1,49.55,29.06,74.56,43.17,9.02,5.09,12.78,11.44,12.76,22.4-.14,71.99.98,143.98.71,215.97-.08,22.97-3.12,45.93-4.78,68.89-1.45,20.06-2.88,40.13-4.45,62.04-7.62.94-15.13,1.86-24.48,3.01-1.23-7.18-2.95-13.19-3.19-19.26-1.97-50.35-3.35-100.73-5.55-151.07-1.48-33.7-3.95-67.37-6.09-101.04-.73-11.47-2.49-22.92-2.54-34.38-.05-9.67-3.71-16.82-11.33-21.94-18.46-12.41-37.07-24.61-55.74-36.71-19.78-12.82-40.05-24.91-59.48-38.24-49.69-34.08-98.86-68.93-148.59-102.96-26.41-18.07-52.77-13.59-78.71,2.24-31.78,19.38-63.4,38.86-96.59,56.07-29.09,15.08-54.96,36.47-81.88,55.59-23.44,16.65-46.33,34.08-69.53,51.08-15.47,11.34-24.12,25.02-22.88,45.68,1.06,17.69-2.22,35.63-3.66,54.53-18.52-1.06-35.44-2.04-54.77-3.15-.41-16.64-.77-32.92-1.21-49.19-.48-17.99-.49-36.01-1.74-53.95-.69-9.84,1.91-16.18,10.96-20.82,17.28-8.86,34.34-18.23,51.1-28.04,16.1-9.42,31.7-19.71,47.57-29.54,5.5-3.41,10.82-7.36,16.75-9.75,52.14-20.93,96.98-54.05,143.23-84.88,26.23-17.48,53.27-33.74,79.82-50.75,11.35-7.27,22.39-15.03,31.84-21.4Z"/>
  <path class="cls-1" d="M427.13,839.16c37.42,17.87,75.68,13.2,113.58,11.19,13.56-.72,27-3.35,40.56-4.33,6.97-.5,14.07.72,20.62,1.13,7.52,14.58,2.79,24.05-7.06,33.62-21.74,21.12-48.9,29.88-77.5,33.9-46.97,6.61-94.08,13.09-141.35,16.52-55.79,4.05-106.64-11.07-151.31-46.26-32.24-25.4-55.51-57.89-77.49-91.66-16.08-24.69-31.75-49.65-47.64-74.47-.77-1.2-1.98-2.14-2.7-3.36-11.98-20.53-11.63-25.77,10.28-36.3,29.62-14.24,60.44-26,90.79-38.72,4.63-1.94,10.7-2.02,14.04-5.15,14.1-13.22,32.84-12.9,49.47-18.77,20.98-7.4,41.11-17.21,61.96-25.02,14.02-5.25,28.52-9.39,43.06-13.02,11.9-2.97,23.03-1.55,29.77,10.93,6.51,12.06,7.51,23.78,1.34,36.7-8.34,17.46-24.05,28.57-39.43,35.09-17.97,7.62-28.72,19.07-37.96,35.36,8.06,9.11,19.26,12.02,30.5,12.31,31.48.82,62.47,1.58,93.45-9.86,30.06-11.1,62.17-16.91,93.67-23.72,19.7-4.26,23.35-.69,27.42,19.69,6.48,32.49,2.5,39.36-28.17,52.28-27.49,11.58-56.22,17.44-85.7,20.44-9.83,1-19.65,2.11-31.81,3.42,4.32,9.84,9.97,13.83,18.3,14.47,43.7,3.38,86.03-.62,126.28-20.19,11.3-5.49,24.55-8.84,37.09-9.43,18.04-.86,25.47,13.51,16.43,29.44-8.17,14.39-21.16,25.09-36.52,28.7-28.59,6.72-57.88,10.61-86.98,15-15.81,2.38-31.3.06-46.82-4.43-14.42-4.17-14.97-2.93-20.14,14.5Z"/>
  <path class="cls-1" d="M190.44,607.28c-18.89,7.59-37.05,16.19-56.04,22.22-26.86,8.53-49.4,22.47-68.15,48.45-8.28-14.36-16.11-26.75-22.71-39.78-4.67-9.22-2.42-16.23,6.48-23.96,30.33-26.33,65.41-40.35,104.66-45.42,22.7-2.93,29.51,1.96,33.99,24.51.81,4.09,1.06,8.29,1.76,13.97Z"/>
</svg>