<svg width="55" height="61" viewBox="0 0 55 61" fill="none" xmlns="http://www.w3.org/2000/svg">
<path d="M27.575 7.92501C32.875 7.92501 37.875 9.06251 42.575 11.3375C47.275 13.6125 51.2 16.9 54.35 21.2C54.7 21.65 54.8125 22.05 54.6875 22.4C54.5625 22.75 54.35 23.05 54.05 23.3C53.75 23.55 53.4 23.6625 53 23.6375C52.6 23.6125 52.25 23.4 51.95 23C49.2 19.1 45.6625 16.1125 41.3375 14.0375C37.0125 11.9625 32.425 10.925 27.575 10.925C22.725 10.925 18.175 11.9625 13.925 14.0375C9.675 16.1125 6.15 19.1 3.35 23C3.05 23.45 2.7 23.7 2.3 23.75C1.9 23.8 1.55 23.7 1.25 23.45C0.899996 23.2 0.687496 22.8875 0.612496 22.5125C0.537496 22.1375 0.649996 21.75 0.949996 21.35C4.05 17.1 7.9375 13.8 12.6125 11.45C17.2875 9.10001 22.275 7.92501 27.575 7.92501ZM27.575 14.975C34.325 14.975 40.125 17.225 44.975 21.725C49.825 26.225 52.25 31.8 52.25 38.45C52.25 40.95 51.3625 43.0375 49.5875 44.7125C47.8125 46.3875 45.65 47.225 43.1 47.225C40.55 47.225 38.3625 46.3875 36.5375 44.7125C34.7125 43.0375 33.8 40.95 33.8 38.45C33.8 36.8 33.1875 35.4125 31.9625 34.2875C30.7375 33.1625 29.275 32.6 27.575 32.6C25.875 32.6 24.4125 33.1625 23.1875 34.2875C21.9625 35.4125 21.35 36.8 21.35 38.45C21.35 43.3 22.7875 47.35 25.6625 50.6C28.5375 53.85 32.25 56.125 36.8 57.425C37.25 57.575 37.55 57.825 37.7 58.175C37.85 58.525 37.875 58.9 37.775 59.3C37.675 59.65 37.475 59.95 37.175 60.2C36.875 60.45 36.5 60.525 36.05 60.425C30.85 59.125 26.6 56.5375 23.3 52.6625C20 48.7875 18.35 44.05 18.35 38.45C18.35 35.95 19.25 33.85 21.05 32.15C22.85 30.45 25.025 29.6 27.575 29.6C30.125 29.6 32.3 30.45 34.1 32.15C35.9 33.85 36.8 35.95 36.8 38.45C36.8 40.1 37.425 41.4875 38.675 42.6125C39.925 43.7375 41.4 44.3 43.1 44.3C44.8 44.3 46.25 43.7375 47.45 42.6125C48.65 41.4875 49.25 40.1 49.25 38.45C49.25 32.65 47.125 27.775 42.875 23.825C38.625 19.875 33.55 17.9 27.65 17.9C21.75 17.9 16.675 19.875 12.425 23.825C8.175 27.775 6.05 32.625 6.05 38.375C6.05 39.575 6.1625 41.075 6.3875 42.875C6.6125 44.675 7.15 46.775 8 49.175C8.15 49.625 8.1375 50.025 7.9625 50.375C7.7875 50.725 7.5 50.975 7.1 51.125C6.7 51.275 6.3125 51.2625 5.9375 51.0875C5.5625 50.9125 5.3 50.625 5.15 50.225C4.4 48.275 3.8625 46.3375 3.5375 44.4125C3.2125 42.4875 3.05 40.5 3.05 38.45C3.05 31.8 5.4625 26.225 10.2875 21.725C15.1125 17.225 20.875 14.975 27.575 14.975ZM27.575 0.575012C30.775 0.575012 33.9 0.962512 36.95 1.73751C40 2.51251 42.95 3.62501 45.8 5.07501C46.25 5.32501 46.5125 5.62501 46.5875 5.97501C46.6625 6.32501 46.625 6.67501 46.475 7.02501C46.325 7.37501 46.075 7.65001 45.725 7.85001C45.375 8.05001 44.95 8.02501 44.45 7.77501C41.8 6.42501 39.0625 5.38751 36.2375 4.66251C33.4125 3.93751 30.525 3.57501 27.575 3.57501C24.675 3.57501 21.825 3.91251 19.025 4.58751C16.225 5.26251 13.55 6.32501 11 7.77501C10.6 8.02501 10.2 8.08751 9.8 7.96251C9.4 7.83751 9.1 7.57501 8.9 7.17501C8.7 6.77501 8.65 6.41251 8.75 6.08751C8.85 5.76251 9.1 5.47501 9.5 5.22501C12.3 3.72501 15.225 2.57501 18.275 1.77501C21.325 0.975012 24.425 0.575012 27.575 0.575012ZM27.575 22.25C32.225 22.25 36.225 23.8125 39.575 26.9375C42.925 30.0625 44.6 33.9 44.6 38.45C44.6 38.9 44.4625 39.2625 44.1875 39.5375C43.9125 39.8125 43.55 39.95 43.1 39.95C42.7 39.95 42.35 39.8125 42.05 39.5375C41.75 39.2625 41.6 38.9 41.6 38.45C41.6 34.7 40.2125 31.5625 37.4375 29.0375C34.6625 26.5125 31.375 25.25 27.575 25.25C23.775 25.25 20.5125 26.5125 17.7875 29.0375C15.0625 31.5625 13.7 34.7 13.7 38.45C13.7 42.5 14.4 45.9375 15.8 48.7625C17.2 51.5875 19.25 54.425 21.95 57.275C22.25 57.575 22.4 57.925 22.4 58.325C22.4 58.725 22.25 59.075 21.95 59.375C21.65 59.675 21.3 59.825 20.9 59.825C20.5 59.825 20.15 59.675 19.85 59.375C16.9 56.275 14.6375 53.1125 13.0625 49.8875C11.4875 46.6625 10.7 42.85 10.7 38.45C10.7 33.9 12.35 30.0625 15.65 26.9375C18.95 23.8125 22.925 22.25 27.575 22.25ZM27.5 36.95C27.95 36.95 28.3125 37.1 28.5875 37.4C28.8625 37.7 29 38.05 29 38.45C29 42.2 30.35 45.275 33.05 47.675C35.75 50.075 38.9 51.275 42.5 51.275C42.8 51.275 43.225 51.25 43.775 51.2C44.325 51.15 44.9 51.075 45.5 50.975C45.95 50.875 46.3375 50.9375 46.6625 51.1625C46.9875 51.3875 47.2 51.725 47.3 52.175C47.4 52.575 47.325 52.925 47.075 53.225C46.825 53.525 46.5 53.725 46.1 53.825C45.2 54.075 44.4125 54.2125 43.7375 54.2375C43.0625 54.2625 42.65 54.275 42.5 54.275C38.05 54.275 34.1875 52.775 30.9125 49.775C27.6375 46.775 26 43 26 38.45C26 38.05 26.1375 37.7 26.4125 37.4C26.6875 37.1 27.05 36.95 27.5 36.95Z" fill="#E8AAD1"/>
</svg>
