<svg width="64" height="66" viewBox="0 0 64 66" fill="none" xmlns="http://www.w3.org/2000/svg">
<path d="M32 42C34.9 42 37.375 40.975 39.425 38.925C41.475 36.875 42.5 34.4 42.5 31.5C42.5 28.6 41.475 26.125 39.425 24.075C37.375 22.025 34.9 21 32 21C29.1 21 26.625 22.025 24.575 24.075C22.525 26.125 21.5 28.6 21.5 31.5C21.5 34.4 22.525 36.875 24.575 38.925C26.625 40.975 29.1 42 32 42ZM29 66V60H23V54H29V47.7C25.1 47 21.875 45.125 19.325 42.075C16.775 39.025 15.5 35.5 15.5 31.5C15.5 29.85 15.7375 28.225 16.2125 26.625C16.6875 25.025 17.4 23.55 18.35 22.2L16.4 20.25L12.2 24.45L8 20.25L12.2 15.975L6.5 10.275V18H0.5V0H18.5V6H10.775L16.475 11.7L20.75 7.5L24.95 11.7L20.75 15.975L22.7 17.925C24.05 16.925 25.525 16.1875 27.125 15.7125C28.725 15.2375 30.35 15 32 15C33.65 15 35.275 15.2375 36.875 15.7125C38.475 16.1875 39.95 16.925 41.3 17.925L53.225 6H45.5V0H63.5V18H57.5V10.275L45.575 22.125C46.525 23.525 47.25 25.0125 47.75 26.5875C48.25 28.1625 48.5 29.8 48.5 31.5C48.5 35.5 47.225 39.025 44.675 42.075C42.125 45.125 38.9 47 35 47.7V54H41V60H35V66H29Z" fill="#E8AAD1"/>
</svg>
