<svg width="184" height="35" viewBox="0 0 184 35" fill="none" xmlns="http://www.w3.org/2000/svg">
<path d="M17.83 17.68C18.18 13.585 15.59 10.715 11.67 10.715C7.785 10.715 4.67 13.655 4.32 17.68C3.97 21.67 6.56 24.61 10.48 24.61C14.4 24.61 17.48 21.67 17.83 17.68ZM2.92 34.55H0.26L2.5 8.825H5.09L4.845 11.87C6.525 9.56 9.185 8.125 12.23 8.125C17.48 8.125 20.98 12.15 20.525 17.68C20.035 23.175 15.835 27.2 10.55 27.2C7.575 27.2 5.195 25.835 3.9 23.525L2.92 34.55ZM29.8705 8.195C30.6055 8.195 31.4455 8.37 32.2155 8.685L32.0055 11.135C31.0955 10.715 30.1155 10.575 29.3805 10.575C26.6505 10.575 24.6205 13.06 24.3055 16.595L23.4305 26.5H20.7705L22.3105 8.825H24.9005L24.6905 11.275C25.9155 9.35 27.7005 8.195 29.8705 8.195ZM48.6054 17.68C48.1154 23.245 43.8454 27.2 38.3504 27.2C32.8204 27.2 29.2504 23.245 29.7404 17.68C30.2304 12.08 34.4654 8.125 39.9954 8.125C45.5254 8.125 49.0954 12.08 48.6054 17.68ZM45.9454 17.68C46.2954 13.55 43.7054 10.575 39.7854 10.575C35.8654 10.575 32.7854 13.55 32.4354 17.68C32.0504 21.775 34.6054 24.785 38.5604 24.785C42.4804 24.785 45.5604 21.775 45.9454 17.68ZM49.9589 8.825H52.6189L50.6939 31.05C50.4839 33.36 48.8389 34.76 46.7039 34.76C44.6389 34.76 43.3439 33.465 43.5189 31.33L43.8339 27.9H44.8839L44.5689 31.365C44.4639 32.625 45.0939 33.465 46.0739 33.465C47.0889 33.465 47.8589 32.66 47.9989 31.33L49.9589 8.825ZM53.5289 3.75C53.4589 4.8 52.6189 5.57 51.5689 5.57C50.4839 5.57 49.8189 4.8 49.8889 3.75C49.9939 2.7 50.7989 1.965 51.8839 1.965C52.9339 1.965 53.6339 2.7 53.5289 3.75ZM56.4763 16.21L69.5313 16.245C69.3563 12.885 66.9763 10.575 63.4763 10.575C60.0463 10.575 57.2813 12.885 56.4763 16.21ZM68.7263 20.795L71.3163 21.215C69.9163 24.68 66.1013 27.2 62.1813 27.2C56.7213 27.2 53.0813 23.105 53.5713 17.47C54.0613 12.08 58.3313 8.125 63.7913 8.125C69.1813 8.125 72.7163 12.08 72.2263 17.505C72.2263 17.82 72.1563 18.17 72.1213 18.555L56.2313 18.52C56.3013 22.23 58.7513 24.785 62.2513 24.785C65.0163 24.785 67.7463 23.105 68.7263 20.795ZM80.1631 23.805L80.4781 20.2H81.5281L81.2131 23.77C81.0381 25.905 79.4981 27.2 77.4331 27.2C75.2981 27.2 73.8981 25.8 74.1081 23.49L75.1931 11.03H72.2881L72.4631 8.825H75.5081L76.2431 4.695H78.4131L78.0631 8.825H82.6131L82.4381 11.03H77.8531L76.7331 23.77C76.6281 25.1 77.2931 25.87 78.2731 25.87C79.2881 25.87 80.0581 25.065 80.1631 23.805ZM100.88 17.68C100.39 23.245 96.1198 27.2 90.6248 27.2C85.0948 27.2 81.5248 23.245 82.0148 17.68C82.5048 12.08 86.7398 8.125 92.2698 8.125C97.7998 8.125 101.37 12.08 100.88 17.68ZM98.2198 17.68C98.5698 13.55 95.9798 10.575 92.0598 10.575C88.1398 10.575 85.0598 13.55 84.7098 17.68C84.3248 21.775 86.8798 24.785 90.8348 24.785C94.7548 24.785 97.8348 21.775 98.2198 17.68ZM113.083 7.915C113.713 7.915 114.448 8.09 115.148 8.37V13.025C114.168 12.605 112.978 12.395 112.208 12.395C109.933 12.395 108.428 14.285 108.428 16.98V26.5H103.178V8.58H108.358V12.15C109.303 9.56 111.018 7.915 113.083 7.915ZM124.658 22.58C126.723 22.58 128.403 20.935 128.403 18.66V8.58H133.653V26.5H128.403V23.07C127.353 25.59 125.183 27.2 122.663 27.2C118.743 27.2 116.083 24.085 116.083 19.78V8.58H121.333V18.87C121.333 21.04 122.593 22.58 124.658 22.58ZM142.651 17.54C142.651 20.41 144.646 22.475 147.341 22.475C150.071 22.475 152.031 20.375 152.031 17.54C152.031 14.705 150.071 12.605 147.341 12.605C144.611 12.605 142.651 14.705 142.651 17.54ZM151.821 0.529998H157.071V26.5H151.891V23.28C150.561 25.73 148.391 27.2 145.591 27.2C140.796 27.2 137.401 23.21 137.401 17.54C137.401 11.87 140.796 7.88 145.591 7.88C148.321 7.88 150.491 9.35 151.821 11.8V0.529998ZM170.754 22.58C173.484 22.58 175.444 20.445 175.444 17.54C175.444 14.635 173.484 12.5 170.754 12.5C168.024 12.5 166.064 14.635 166.064 17.54C166.064 20.445 168.024 22.58 170.754 22.58ZM175.479 12.535V8.58H180.729L180.764 24.4C180.764 24.785 181.009 25.065 181.359 25.065C181.744 25.065 181.989 24.785 181.989 24.4V20.2H183.214V24.225C183.214 25.975 181.954 27.2 179.399 27.2C177.019 27.2 175.479 26.115 175.479 23.84L175.514 22.545C174.254 25.415 171.979 27.2 169.074 27.2C164.209 27.2 160.814 23.21 160.814 17.54C160.814 11.87 164.209 7.88 169.074 7.88C171.944 7.88 174.254 9.665 175.479 12.535ZM168.129 6.48L172.329 0.459999H177.299L172.224 6.48H168.129Z" fill="#373059"/>
</svg>
